<?xml version="1.0" encoding="UTF-8"?>
<svg version="1.1" xmlns="http://www.w3.org/2000/svg" width="496" height="490">
<path d="M0 0 C0.68562012 0.02465332 1.37124023 0.04930664 2.07763672 0.07470703 C4.30271614 0.15993113 6.52608551 0.26361987 8.75 0.375 C9.45487549 0.4056958 10.15975098 0.4363916 10.88598633 0.46801758 C12.59680427 0.57024758 14.30083422 0.77598063 16 1 C16.33 1.66 16.66 2.32 17 3 C14.34105336 6.31390777 10.8599434 7.3944144 7 8.8125 C-4.92797726 12.95316847 -4.92797726 12.95316847 -14 21 C-16.125 22.1875 -16.125 22.1875 -18 23 C-15.04693969 24.96870687 -13.06902003 25.64544242 -9.67578125 26.5078125 C-8.64775391 26.77207031 -7.61972656 27.03632812 -6.56054688 27.30859375 C-5.48869141 27.57800781 -4.41683594 27.84742187 -3.3125 28.125 C-2.22904297 28.40214844 -1.14558594 28.67929687 -0.02929688 28.96484375 C2.64587235 29.64836717 5.32228484 30.32653231 8 31 C8 31.66 8 32.32 8 33 C20.3567597 37.93954314 32.0819279 41.84745781 45.32421875 43.4296875 C49 44 49 44 52 46 C53.34573183 46.5266427 54.71041224 47.00618719 56.0859375 47.44921875 C56.88354492 47.70622559 57.68115234 47.96323242 58.50292969 48.22802734 C61.70643369 49.21839493 64.92189322 50.16194297 68.14306641 51.09301758 C78.32652047 54.0450773 88.4872598 57.2436299 98 62 C98 62.66 98 63.32 98 64 C98.66 64 99.32 64 100 64 C99.98952637 63.34402832 99.97905273 62.68805664 99.96826172 62.01220703 C99.92677497 59.04984342 99.90069738 56.08754084 99.875 53.125 C99.85824219 52.09246094 99.84148437 51.05992188 99.82421875 49.99609375 C99.81777344 49.00996094 99.81132812 48.02382813 99.8046875 47.0078125 C99.79421387 46.09660645 99.78374023 45.18540039 99.77294922 44.24658203 C100 42 100 42 102 40 C103.32 40 104.64 40 106 40 C106 40.66 106 41.32 106 42 C106.59941406 42.07863281 107.19882812 42.15726563 107.81640625 42.23828125 C110.72588518 43.25321576 111.35902116 44.57710701 112.9375 47.1875 C115.71534846 51.5997896 118.56379278 55.75735445 122.42578125 59.3125 C128.22998111 65.53437181 131.71146188 73.92280665 134 82 C134.99 82 135.98 82 137 82 C137.680625 83.423125 137.680625 83.423125 138.375 84.875 C140.00476881 88.00917079 141.58411027 89.60857437 144.125 92 C146 94 146 94 146 96 C146.53625 96.226875 147.0725 96.45375 147.625 96.6875 C151.61066635 98.89010509 155.08405776 101.43959979 157.41015625 105.40234375 C159.11720079 108.19149514 160.97615549 110.03946069 163.375 112.25 C167.69807405 116.48926648 170.39233197 120.58014095 173 126 C173.53882813 127.06734375 174.07765625 128.1346875 174.6328125 129.234375 C176.10380479 132.14899228 177.55782467 135.07104599 179 138 C179.66 138 180.32 138 181 138 C182.98 143.445 182.98 143.445 185 149 C184.34 149.66 183.68 150.32 183 151 C180.59948563 150.76769216 179.38236467 150.42940638 177.76171875 148.609375 C175.33879473 146.39597213 172.81827562 145.57561619 169.75 144.4375 C168.65171875 144.02371094 167.5534375 143.60992187 166.421875 143.18359375 C162.96930465 141.98938277 159.52090745 140.96959 156 140 C156.11069824 140.60134766 156.22139648 141.20269531 156.33544922 141.82226562 C159.98096909 161.89728247 161.90363421 181.84563176 162.65893555 202.22729492 C162.82807815 206.56717226 163.16278689 210.72398592 164 215 C164.33 215 164.66 215 165 215 C165.01981934 215.74685059 165.03963867 216.49370117 165.06005859 217.26318359 C165.15508211 220.63415605 165.26485259 224.00448929 165.375 227.375 C165.42140625 229.1384375 165.42140625 229.1384375 165.46875 230.9375 C165.50742187 232.05898437 165.54609375 233.18046875 165.5859375 234.3359375 C165.63306885 235.89127197 165.63306885 235.89127197 165.68115234 237.47802734 C165.75954472 240.16809835 165.75954472 240.16809835 168 242 C168.22705078 243.87939453 168.22705078 243.87939453 168.1953125 246.1328125 C168.18886719 246.93847656 168.18242187 247.74414062 168.17578125 248.57421875 C168.15902344 249.41597656 168.14226562 250.25773438 168.125 251.125 C168.11597656 251.97449219 168.10695313 252.82398438 168.09765625 253.69921875 C168.07405647 255.79959884 168.03818483 257.89983444 168 260 C170.26105431 258.97829364 172.50665056 257.93435946 174.75 256.875 C175.38421875 256.59140625 176.0184375 256.3078125 176.671875 256.015625 C181.26923942 253.81272121 183.40734936 251.52206507 186 247 C187.91347661 244.52373615 189.78810324 242.21189676 192 240 C193.65 240.33 195.3 240.66 197 241 C196.67 246.28 196.34 251.56 196 257 C195.01 257.33 194.02 257.66 193 258 C192.10621912 259.80642299 192.10621912 259.80642299 191.5703125 262.05078125 C191.3345752 262.88963867 191.09883789 263.72849609 190.85595703 264.59277344 C190.4941333 265.93903809 190.4941333 265.93903809 190.125 267.3125 C187.90791077 275.15973694 185.40902093 282.5785916 182 290 C181.01 290 180.02 290 179 290 C178.6596875 291.2065625 178.6596875 291.2065625 178.3125 292.4375 C176.31053175 297.87141382 173.45891351 302.81162973 170.25 307.625 C168.6355333 310.69248672 168.39442603 313.58164109 168 317 C167.67 317.33 167.34 317.66 167 318 C166.46329713 320.7692064 166.0351126 323.54945085 165.59765625 326.3359375 C165 329 165 329 163 332 C162.31947066 334.5191023 161.70197385 337.02023647 161.125 339.5625 C157.09546135 356.4241891 157.09546135 356.4241891 152 361 C148.67747821 360.44624637 146.57678135 359.74242113 144.4765625 357.0390625 C143.48161037 355.45450911 142.49741603 353.86315592 141.5234375 352.265625 C139.41788691 349.13429335 137.02045282 347.22938184 134 345 C131.32867456 345.9646453 129.21650113 346.82409283 127 348.625 C124.51246105 350.33518303 122.95602718 350.2463356 120 350 C119.95738037 350.60231445 119.91476074 351.20462891 119.87084961 351.82519531 C119 354 119 354 116.43969727 355.46386719 C114.76991821 356.12370605 114.76991821 356.12370605 113.06640625 356.796875 C111.86048828 357.28027344 110.65457031 357.76367188 109.41210938 358.26171875 C108.12891564 358.75783678 106.8457124 359.25393025 105.5625 359.75 C104.28266815 360.26037927 103.00336359 360.77208293 101.72460938 361.28515625 C92.3473825 365 92.3473825 365 90 365 C90 365.66 90 366.32 90 367 C88.62708132 367.48509793 87.25153297 367.96275513 85.875 368.4375 C85.10929687 368.70433594 84.34359375 368.97117187 83.5546875 369.24609375 C80.72304651 370.08173092 77.91313644 370.53551074 75 371 C74.97494385 371.77601563 74.9498877 372.55203125 74.92407227 373.3515625 C74.80732255 376.90117731 74.6849569 380.45057768 74.5625 384 C74.52318359 385.22074219 74.48386719 386.44148438 74.44335938 387.69921875 C74.22691897 393.85944564 73.90718169 399.90129953 73 406 C81.00862748 403.69572242 89.00815811 401.36183634 97 399 C97.7425 398.78230957 98.485 398.56461914 99.25 398.34033203 C100.92102757 397.84555121 102.58599889 397.33042035 104.25 396.8125 C105.10078125 396.55082031 105.9515625 396.28914063 106.828125 396.01953125 C109.47179452 394.77852811 110.96689605 393.08047725 113 391 C115.40234375 389.515625 115.40234375 389.515625 117.9375 388.25 C118.77152344 387.82203125 119.60554688 387.3940625 120.46484375 386.953125 C123.16263418 385.93885556 125.14364627 385.81604878 128 386 C127.75107354 389.36050723 126.86673436 390.11509305 124.25 392.375 C123.70730469 392.79523438 123.16460937 393.21546875 122.60546875 393.6484375 C120.72771857 395.14343831 120.72771857 395.14343831 118.5625 398 C114.82704231 402.37321875 110.7899316 405.13818108 105.625 407.625 C102.68930633 408.77601154 102.68930633 408.77601154 102 412 C97.18813314 415.89472252 88.24298587 422 82 422 C81.814375 422.598125 81.62875 423.19625 81.4375 423.8125 C79.37041067 426.95807072 76.38120634 427.65695981 73 429 C71.34887393 429.68078491 69.69783739 430.361787 68.046875 431.04296875 C66.28164245 431.75878106 64.51601021 432.47360844 62.75 433.1875 C61.40421875 433.73954102 61.40421875 433.73954102 60.03125 434.30273438 C58.73960937 434.82383789 58.73960937 434.82383789 57.421875 435.35546875 C56.64424805 435.67153076 55.86662109 435.98759277 55.06542969 436.31323242 C53 437 53 437 50 437 C50 437.66 50 438.32 50 439 C43.95158725 441.86638461 37.81428188 443.46564301 31.3125 445 C30.21341309 445.26127686 29.11432617 445.52255371 27.98193359 445.79174805 C18.05129136 448.09310078 8.11174908 449.75096013 -2 451 C-3.43859375 451.19722656 -3.43859375 451.19722656 -4.90625 451.3984375 C-9.44734074 451.93014749 -13.98195473 452.04117849 -18.55078125 452.0546875 C-20.05922607 452.05915894 -20.05922607 452.05915894 -21.59814453 452.0637207 C-26.06560555 452.06195547 -30.53271209 452.03842447 -35 452 C-35.33 451.01 -35.66 450.02 -36 449 C-34.99582031 448.69707031 -33.99164063 448.39414062 -32.95703125 448.08203125 C-17.2504104 444.46191479 -17.2504104 444.46191479 -5 436 C-4.01 436 -3.02 436 -2 436 C-2 435.34 -2 434.68 -2 434 C-3.299375 433.566875 -3.299375 433.566875 -4.625 433.125 C-9.3125 431.5625 -9.3125 431.5625 -14 430 C-14 429.34 -14 428.68 -14 428 C-14.556875 427.773125 -15.11375 427.54625 -15.6875 427.3125 C-18 426 -18 426 -20.3125 423.625 C-26.79064396 417.29751055 -31.98322297 416.40172363 -40.74609375 416.390625 C-41.75720718 416.37408875 -42.76832062 416.35755249 -43.81007385 416.34051514 C-47.01927859 416.29217827 -50.22800991 416.27069552 -53.4375 416.25 C-55.62176842 416.22182843 -57.80601493 416.19189934 -59.99023438 416.16015625 C-65.32673738 416.08642343 -70.66310804 416.03469715 -76 416 C-75.57650019 419.14787907 -75.13357988 422.2927478 -74.6875 425.4375 C-74.56955078 426.31599609 -74.45160156 427.19449219 -74.33007812 428.09960938 C-73.57894701 433.31900767 -72.46963788 438.07710054 -70.59692383 443.01196289 C-70 445 -70 445 -70 449 C-81.63815285 448.30171083 -91.74060371 443.89205221 -100.79296875 436.671875 C-102.98233244 434.82768099 -102.98233244 434.82768099 -106 434 C-106 433.34 -106 432.68 -106 432 C-106.66 432 -107.32 432 -108 432 C-109 431 -110 430 -111 429 C-111.99 428.67 -112.98 428.34 -114 428 C-114 427.34 -114 426.68 -114 426 C-114.66 426 -115.32 426 -116 426 C-117.00739746 424.33779419 -118.00522955 422.66979326 -119 421 C-122.28026901 415.70288715 -125.12040381 413.63364425 -131.25 412.1875 C-132.28640625 411.99542969 -133.3228125 411.80335938 -134.390625 411.60546875 C-137 411 -137 411 -139 409 C-141.27959804 408.24669121 -141.27959804 408.24669121 -143.953125 407.66796875 C-144.95883545 407.42941162 -145.9645459 407.19085449 -147.00073242 406.94506836 C-148.60911987 406.57007202 -148.60911987 406.57007202 -150.25 406.1875 C-174.97263972 400.18707301 -174.97263972 400.18707301 -182 393 C-184.16282601 391.81855197 -184.16282601 391.81855197 -186.3125 391.1875 C-187.529375 390.795625 -188.74625 390.40375 -190 390 C-190 389.34 -190 388.68 -190 388 C-191.3303125 387.690625 -191.3303125 387.690625 -192.6875 387.375 C-196.96539579 385.59926967 -198.34400193 383.74964433 -201 380 C-201 379.34 -201 378.68 -201 378 C-197.71563221 375.81042147 -196.88271401 375.77422376 -193.09765625 375.875 C-191.64649414 375.90037842 -191.64649414 375.90037842 -190.16601562 375.92626953 C-189.14185547 375.95060059 -188.11769531 375.97493164 -187.0625 376 C-176.10076055 376.13405223 -166.53772962 375.07350447 -156 372 C-156.49371094 371.02417969 -156.98742187 370.04835938 -157.49609375 369.04296875 C-158.14333531 367.75786595 -158.79046488 366.47270675 -159.4375 365.1875 C-159.76298828 364.54490234 -160.08847656 363.90230469 -160.42382812 363.24023438 C-161.79232676 360.51734534 -163.03483265 357.89550206 -164 355 C-164.7733354 352.97208091 -165.56725724 350.95196149 -166.375 348.9375 C-166.79523438 347.87402344 -167.21546875 346.81054688 -167.6484375 345.71484375 C-168.84725679 342.74242314 -168.84725679 342.74242314 -172 341 C-172.66015625 338.87109375 -172.66015625 338.87109375 -173.0625 336.4375 C-173.42427653 334.05566971 -173.42427653 334.05566971 -174 332 C-174.66 331.67 -175.32 331.34 -176 331 C-176.47485544 329.03398268 -176.88112252 327.05112797 -177.25 325.0625 C-177.9643539 321.81346866 -177.9643539 321.81346866 -179 319 C-181.63315381 317.37059931 -181.63315381 317.37059931 -185 317 C-186.64967777 316.17246556 -188.27427445 315.29365539 -189.875 314.375 C-190.65617187 313.92898438 -191.43734375 313.48296875 -192.2421875 313.0234375 C-192.82226562 312.68570312 -193.40234375 312.34796875 -194 312 C-194 311.34 -194 310.68 -194 310 C-194.99 309.67 -195.98 309.34 -197 309 C-197 308.34 -197 307.68 -197 307 C-198.65 306.67 -200.3 306.34 -202 306 C-202 305.34 -202 304.68 -202 304 C-203.3303125 303.6596875 -203.3303125 303.6596875 -204.6875 303.3125 C-208.45058652 301.82146572 -210.24286445 299.9061699 -213 297 C-213.99 296.67 -214.98 296.34 -216 296 C-216 295.34 -216 294.68 -216 294 C-218.76010324 295.38005162 -218.8422162 296.78195295 -219.875 299.65625 C-220.22046875 300.59597656 -220.5659375 301.53570312 -220.921875 302.50390625 C-221.27765625 303.49261719 -221.6334375 304.48132813 -222 305.5 C-222.70179618 307.45028141 -223.4098145 309.39833869 -224.125 311.34375 C-224.43695313 312.21193359 -224.74890625 313.08011719 -225.0703125 313.97460938 C-226 316 -226 316 -228 317 C-228.62669199 319.16467461 -229.15427374 321.35864524 -229.625 323.5625 C-229.88539063 324.76003906 -230.14578125 325.95757812 -230.4140625 327.19140625 C-230.60742188 328.11824219 -230.80078125 329.04507812 -231 330 C-232.32 330.33 -233.64 330.66 -235 331 C-237.73647333 325.25340601 -239.37908384 319.34580569 -241.03515625 313.20703125 C-241.85885725 310.12718631 -241.85885725 310.12718631 -243.05078125 307.9296875 C-247.60841109 298.6643824 -246.21751207 286.09014346 -246 276 C-246.66 275.67 -247.32 275.34 -248 275 C-247.84660156 274.40574219 -247.69320312 273.81148438 -247.53515625 273.19921875 C-246.41236454 267.23264794 -247.07172242 264.11625226 -250.4375 259 C-251.09621094 258.0925 -251.75492188 257.185 -252.43359375 256.25 C-254 254 -254 254 -254 252 C-254.66 251.67 -255.32 251.34 -256 251 C-259.79418135 246.28601711 -260.70579786 242.88404283 -261 237 C-260.505 236.01 -260.505 236.01 -260 235 C-259.34 235 -258.68 235 -258 235 C-258 234.34 -258 233.68 -258 233 C-256.12890625 231.59765625 -256.12890625 231.59765625 -253.5625 230.0625 C-252.32693359 229.30646484 -252.32693359 229.30646484 -251.06640625 228.53515625 C-248 227 -248 227 -245.79785156 226.5949707 C-243.12023152 226.05564357 -241.29300513 225.50512868 -239 224 C-236.76331699 219.89858281 -235.72979539 215.58145383 -234.625 211.0625 C-233.99891392 208.69742788 -233.36635736 206.33405678 -232.7265625 203.97265625 C-232.46439941 202.92343994 -232.20223633 201.87422363 -231.93212891 200.79321289 C-230.67386279 197.02269884 -228.77789127 194.77789127 -226 192 C-225.30577053 190.43728103 -224.66610213 188.84990925 -224.0625 187.25 C-222.9170975 184.24870097 -221.78169771 181.61608908 -220.1875 178.8125 C-218.63831645 175.14338107 -218.74725586 172.6774102 -220 169 C-221.48699703 165.83705051 -223.06357187 162.74801262 -224.72265625 159.671875 C-226 157 -226 157 -226 154 C-226.99 154 -227.98 154 -229 154 C-229.66 153.01 -230.32 152.02 -231 151 C-231.3403125 151.53367188 -231.680625 152.06734375 -232.03125 152.6171875 C-234.77064381 156.82827691 -237.60028254 160.75062533 -240.875 164.5625 C-244.97051072 169.53056674 -247.64906149 174.90400635 -250.29833984 180.73071289 C-251.12998354 182.52079895 -252.05848188 184.26518502 -253 186 C-253.99 186.33 -254.98 186.66 -256 187 C-257.61692353 182.24434256 -258.36514082 178.89175459 -257 174 C-256.01 173.01 -256.01 173.01 -255 172 C-254.3761861 170.12799298 -254.3761861 170.12799298 -253.95703125 167.94921875 C-253.77390381 167.11519531 -253.59077637 166.28117188 -253.40209961 165.421875 C-253.20753174 164.51953125 -253.01296387 163.6171875 -252.8125 162.6875 C-251.02783841 154.83635395 -248.95059637 147.15023065 -246.4375 139.5 C-246.15688721 138.62303467 -245.87627441 137.74606934 -245.5871582 136.8425293 C-243.99079561 132.09978007 -242.25758716 128.85749926 -239 125 C-237.93124375 122.73958053 -236.93385356 120.44440804 -236 118.125 C-233.97302963 113.19094435 -231.81012175 108.53942745 -229 104 C-228.01 104.495 -228.01 104.495 -227 105 C-226.62875 104.030625 -226.2575 103.06125 -225.875 102.0625 C-224.17316371 98.0672367 -221.86734378 94.62830116 -219.40234375 91.06640625 C-217.91106794 88.94669985 -217.91106794 88.94669985 -216.5625 86.3125 C-214.62247889 83.44126876 -212.26639667 81.61639071 -209.5234375 79.52734375 C-207.71337012 77.71263518 -207.52161829 76.46538454 -207 74 C-204.72201113 71.43726252 -202.29272317 69.25389254 -199.703125 67.0078125 C-198.89359375 66.30398437 -198.0840625 65.60015625 -197.25 64.875 C-196.47140625 64.21242188 -195.6928125 63.54984375 -194.890625 62.8671875 C-192.76505303 61.04979798 -192.76505303 61.04979798 -192 58 C-190.15995658 56.47187685 -188.2528394 55.02357182 -186.3125 53.625 C-182.08558982 50.54376538 -177.96460476 47.41396521 -174 44 C-172.515 44.99 -172.515 44.99 -171 46 C-172.27388304 50.96814385 -174.59394004 54.53600882 -177.48046875 58.6796875 C-178.93295935 60.89762944 -180.07280524 63.09845685 -181.1875 65.5 C-183 69 -183 69 -186 70 C-186.9547877 71.92811046 -186.9547877 71.92811046 -187.5625 74.25 C-187.92988281 75.46236328 -187.92988281 75.46236328 -188.3046875 76.69921875 C-188.53414063 77.45847656 -188.76359375 78.21773438 -189 79 C-189.64896236 80.67363977 -190.30580437 82.34461042 -191 84 C-189.86433594 83.690625 -188.72867188 83.38125 -187.55859375 83.0625 C-184.56600417 82.30924973 -181.66805791 81.79988385 -178.59765625 81.5 C-168.07657783 80.50140089 -168.07657783 80.50140089 -159.875 74.25 C-158.58015956 72.502347 -157.28833429 70.75245472 -156 69 C-154.60109926 67.68679768 -153.16479207 66.41184953 -151.6875 65.1875 C-149.41340178 63.28048063 -147.76259888 61.69065915 -145.9375 59.3125 C-143.33799936 56.2098702 -140.55339984 54.93821809 -137 53 C-135.9826127 52.01769502 -134.97403883 51.02530403 -134 50 C-133.34 50 -132.68 50 -132 50 C-132 49.34 -132 48.68 -132 48 C-129.74004714 45.28805657 -127.36876271 43.56034652 -124.3125 41.875 C-120.95938281 40.38383627 -120.95938281 40.38383627 -120 38 C-120.66 38 -121.32 38 -122 38 C-122 37.34 -122 36.68 -122 36 C-122.66 36 -123.32 36 -124 36 C-124.33 34.35 -124.66 32.7 -125 31 C-125.99 30.67 -126.98 30.34 -128 30 C-128 29.34 -128 28.68 -128 28 C-128.66 28 -129.32 28 -130 28 C-130 27.34 -130 26.68 -130 26 C-130.66 26 -131.32 26 -132 26 C-132.9765625 19.9453125 -132.9765625 19.9453125 -133 18 C-128.78146341 13.78146341 -122.00725945 13.87968259 -116.30859375 13.8046875 C-114.35146594 13.81777866 -112.39438191 13.84132764 -110.4375 13.875 C-109.42880859 13.88402344 -108.42011719 13.89304687 -107.38085938 13.90234375 C-104.92031543 13.92566644 -102.46029104 13.95839237 -100 14 C-100 13.34 -100 12.68 -100 12 C-94.06 12 -88.12 12 -82 12 C-82 12.66 -82 13.32 -82 14 C-74.26358978 13.81255394 -67.29791796 12.10846326 -59.9296875 9.94311523 C-53.68268657 8.12522224 -47.45225301 6.84928863 -41.0390625 5.7734375 C-38.01837193 5.22368486 -38.01837193 5.22368486 -36.09301758 3.49731445 C-33.72018557 1.79982481 -32.35040368 1.52196524 -29.47265625 1.26953125 C-28.60471436 1.18872314 -27.73677246 1.10791504 -26.8425293 1.0246582 C-25.92511963 0.954646 -25.00770996 0.88463379 -24.0625 0.8125 C-23.11608643 0.73281982 -22.16967285 0.65313965 -21.19458008 0.57104492 C-14.11280053 0.0079621 -7.10282301 -0.28480335 0 0 Z M4 49 C1.11523438 49.28710938 1.11523438 49.28710938 -2.40625 49.34375 C-3.69942139 49.37170654 -4.99259277 49.39966309 -6.32495117 49.4284668 C-7.00737885 49.43969574 -7.68980652 49.45092468 -8.39291382 49.4624939 C-11.91511498 49.52518903 -15.43592375 49.6317478 -18.95703125 49.73828125 C-19.65169998 49.75913284 -20.34636871 49.77998444 -21.06208801 49.8014679 C-26.78192295 49.97975363 -32.48397025 50.21682036 -38.1875 50.6875 C-38.93902344 50.72875 -39.69054687 50.77 -40.46484375 50.8125 C-42.80494703 50.97326685 -42.80494703 50.97326685 -46 52 C-48.44292097 54.79677046 -48.44292097 54.79677046 -50 58 C-52 61 -52 61 -54 62 C-55.05104864 64.3873819 -55.988314 66.73918791 -56.875 69.1875 C-57.13966064 69.90929443 -57.40432129 70.63108887 -57.67700195 71.37475586 C-64.41124771 89.7317487 -64.41124771 89.7317487 -67 109 C-66.34 109 -65.68 109 -65 109 C-64.62294922 110.2375 -64.62294922 110.2375 -64.23828125 111.5 C-62.8234485 115.49902253 -61.07921452 119.20944586 -59.1875 123 C-58.85685547 123.68578125 -58.52621094 124.3715625 -58.18554688 125.078125 C-56.52826384 128.41177686 -54.92963329 131.0839968 -52.51953125 133.9609375 C-48.98967832 138.21865158 -46.80224783 142.94687902 -44.39453125 147.8984375 C-42.13296005 152.37396787 -40.12294378 154.99004104 -36 158 C-34.6875 161.25 -34.6875 161.25 -34 164 C-31.36 163.67 -28.72 163.34 -26 163 C-26 162.34 -26 161.68 -26 161 C-25.15928955 160.77860352 -24.3185791 160.55720703 -23.45239258 160.32910156 C-20.2666052 159.48876898 -17.08147455 158.6460248 -13.89672852 157.80175781 C-12.53076464 157.4401462 -11.16456168 157.07943619 -9.7980957 156.71972656 C5.79415577 153.84402732 5.79415577 153.84402732 19 147 C21.14109689 146.45474376 23.30541946 145.99940227 25.4765625 145.58984375 C26.80112336 145.32003347 28.12533224 145.04849057 29.44921875 144.77539062 C31.52662579 144.35322679 33.6036975 143.94139815 35.68896484 143.55981445 C44.16208476 141.99023029 50.16791858 140.2731917 55.5769043 133.15991211 C56.78904298 131.3201813 57.99809889 129.47949832 59.1875 127.625 C61 125 61 125 63.3671875 123.703125 C66.60951284 121.60571573 67.93513371 119.40904451 69.9375 116.125 C74.13766237 109.52247204 74.13766237 109.52247204 77.4375 107 C80.13664158 104.89335291 80.55154161 104.25132334 81 101 C81.99 100.01 81.99 100.01 83 99 C82.86681477 94.20533175 80.22158277 91.27076724 77 88 C73.06776578 83.76792416 73.06776578 83.76792416 68 82 C67.5978125 81.0409375 67.5978125 81.0409375 67.1875 80.0625 C66.11332248 77.66868314 66.11332248 77.66868314 63 77 C63 76.01 63 75.02 63 74 C60.35261084 72.5393715 59.10551666 72 56 72 C55.773125 71.4225 55.54625 70.845 55.3125 70.25 C53.64018419 67.3831729 51.72780269 65.86288964 49 64 C48.01 64 47.02 64 46 64 C45.505 62.02 45.505 62.02 45 60 C44.01 60 43.02 60 42 60 C41.773125 59.40703125 41.54625 58.8140625 41.3125 58.203125 C39.63217912 55.38258638 37.83091887 54.37942423 35 52.75 C34.113125 52.22921875 33.22625 51.7084375 32.3125 51.171875 C30.13474537 49.84932375 30.13474537 49.84932375 28 50 C28 49.01 28 48.02 28 47 C25.07073378 45.53536689 22.44743219 45.86817292 19.1875 45.875 C17.96417969 45.87242188 16.74085938 45.86984375 15.48046875 45.8671875 C10.78152445 46.04649626 7.93690188 46.37539875 4 49 Z M-118.859375 67.6796875 C-119.48982727 67.85251251 -120.12027954 68.02533752 -120.76983643 68.20339966 C-122.09189964 68.56788836 -123.41291936 68.9361815 -124.73291016 69.30810547 C-126.75528412 69.87648508 -128.78148999 70.42922588 -130.80859375 70.98046875 C-132.09661018 71.33761968 -133.38438002 71.69566135 -134.671875 72.0546875 C-135.8381543 72.37937012 -137.00443359 72.70405273 -138.20605469 73.03857422 C-141.09753244 73.80516868 -141.09753244 73.80516868 -143 76 C-142.505 76.99 -142.505 76.99 -142 78 C-142.94875 78.0825 -143.8975 78.165 -144.875 78.25 C-152.86023069 79.42524565 -159.60356888 83.08059838 -166.08984375 87.73046875 C-168 89 -168 89 -171 90 C-172.34519513 91.43649955 -172.34519513 91.43649955 -173.625 93.1875 C-175.94070645 96.01083668 -178.13157799 97.86021422 -181.25 99.75 C-186.28377089 102.88231275 -189.76761936 106.98505605 -193.54296875 111.51171875 C-196 114 -196 114 -199.11328125 115.45703125 C-202.82992054 117.44359758 -203.53551258 119.09314059 -205 123 C-205.93296413 126.45759969 -205.93296413 126.45759969 -206.5625 130.1875 C-206.68544434 130.86514404 -206.80838867 131.54278809 -206.93505859 132.2409668 C-208.05718948 138.72218944 -208.74961559 145.24416624 -209.35375977 151.79174805 C-209.65509412 155.02217464 -209.96994983 157.90984949 -211 161 C-211.09185751 162.45741472 -211.13066657 163.9186012 -211.1328125 165.37890625 C-211.13410156 166.21744141 -211.13539063 167.05597656 -211.13671875 167.91992188 C-211.13285156 168.79197266 -211.12898438 169.66402344 -211.125 170.5625 C-211.12886719 171.43841797 -211.13273437 172.31433594 -211.13671875 173.21679688 C-211.13542969 174.05404297 -211.13414062 174.89128906 -211.1328125 175.75390625 C-211.13168457 176.52033447 -211.13055664 177.2867627 -211.12939453 178.07641602 C-211.11868694 180.08443868 -211.11868694 180.08443868 -210 182 C-209.71906601 184.11601393 -209.48793943 186.23872992 -209.28125 188.36328125 C-209.15363281 189.64267578 -209.02601563 190.92207031 -208.89453125 192.24023438 C-208.76270126 193.59762525 -208.63119395 194.9550475 -208.5 196.3125 C-208.24260741 198.95474613 -207.98146348 201.59655126 -207.71875 204.23828125 C-207.60466797 205.41430908 -207.49058594 206.59033691 -207.37304688 207.80200195 C-207.04866975 210.58277158 -206.59866876 213.26712849 -206 216 C-205.27748047 215.88930176 -204.55496094 215.77860352 -203.81054688 215.66455078 C-189.83836395 213.54400944 -175.92744193 211.60291136 -161.81835938 210.68408203 C-156.31364901 210.30294194 -151.31241172 209.50892446 -146 208 C-146 207.01 -146 206.02 -146 205 C-144.22302734 204.66355469 -144.22302734 204.66355469 -142.41015625 204.3203125 C-135.55119483 202.79609885 -129.02522127 200.28164941 -122.4375 197.875 C-121.12973984 197.40183891 -119.8217983 196.92917879 -118.51367188 196.45703125 C-115.34063479 195.3095861 -112.16951538 194.15712972 -109 193 C-109.33 192.01 -109.66 191.02 -110 190 C-109.00613281 189.88527344 -108.01226562 189.77054687 -106.98828125 189.65234375 C-102.88754296 189.0647537 -99.09932377 187.89758015 -95.1875 186.5625 C-94.52041016 186.34529297 -93.85332031 186.12808594 -93.16601562 185.90429688 C-90.22392338 184.91568263 -88.2235936 184.2235936 -86 182 C-85.64733361 179.98520907 -85.64733361 179.98520907 -85.62109375 177.68359375 C-85.58693359 176.83732422 -85.55277344 175.99105469 -85.51757812 175.11914062 C-85.47793945 173.79172852 -85.47793945 173.79172852 -85.4375 172.4375 C-85.37780601 170.68605308 -85.31421588 168.93473311 -85.24609375 167.18359375 C-85.21020142 166.01654907 -85.21020142 166.01654907 -85.17358398 164.82592773 C-85 163 -85 163 -84 162 C-83.91330568 160.5112814 -83.89296506 159.018555 -83.90234375 157.52734375 C-83.90556641 156.62822266 -83.90878906 155.72910156 -83.91210938 154.80273438 C-83.92048828 153.85720703 -83.92886719 152.91167969 -83.9375 151.9375 C-83.94201172 150.98810547 -83.94652344 150.03871094 -83.95117188 149.06054688 C-83.9629989 146.70696935 -83.97947975 144.35351523 -84 142 C-83.34 142 -82.68 142 -82 142 C-81.67 142.99 -81.34 143.98 -81 145 C-80.4479766 141.01653166 -79.89665371 137.03296703 -79.34594727 133.04931641 C-79.15895989 131.69740249 -78.9717894 130.34551389 -78.78442383 128.99365234 C-78.33965681 125.78421356 -77.89821968 122.57442668 -77.46411133 119.36352539 C-77.19019474 117.37838662 -76.90365988 115.39480106 -76.58862305 113.41577148 C-76.03242916 109.78726852 -75.67626781 107.24009732 -77.6875 104.0625 C-79.65441959 100.92179059 -79.65441959 100.92179059 -82.25 100.0625 C-82.8275 100.041875 -83.405 100.02125 -84 100 C-84 99.34 -84 98.68 -84 98 C-84.66 98 -85.32 98 -86 98 C-86.103125 97.443125 -86.20625 96.88625 -86.3125 96.3125 C-87.76925612 91.41250215 -91.11521202 87.30268527 -94.0625 83.1875 C-94.75472656 82.21167969 -95.44695312 81.23585938 -96.16015625 80.23046875 C-96.76730469 79.49441406 -97.37445313 78.75835937 -98 78 C-98.66 78 -99.32 78 -100 78 C-100.11988281 77.42765625 -100.23976563 76.8553125 -100.36328125 76.265625 C-101.04216653 73.8499596 -101.942104 71.9264202 -103.1875 69.75 C-103.57292969 69.04359375 -103.95835937 68.3371875 -104.35546875 67.609375 C-105.9370978 65.71675528 -105.9370978 65.71675528 -108.67407227 65.79443359 C-112.27374807 66.01691961 -115.38319832 66.72237543 -118.859375 67.6796875 Z M78.54516602 140.71606445 C75.64882785 141.19387983 72.74823861 141.63385803 69.84570312 142.07226562 C67.98401188 142.37275891 66.12266766 142.67541197 64.26171875 142.98046875 C63.40341965 143.10777878 62.54512054 143.23508881 61.66081238 143.36625671 C56.31202748 144.2979264 53.50140894 145.57732611 50 150 C49.4740625 151.0828125 49.4740625 151.0828125 48.9375 152.1875 C48 154 48 154 46.21875 154.71484375 C43.04508244 156.55311246 41.4898607 159.35247233 39.5625 162.375 C36.8034571 166.6893149 34.02817404 169.81419569 30 173 C27.71463101 175.89751801 27.71463101 175.89751801 25.6875 179.0625 C24.99011719 180.10535156 24.29273438 181.14820313 23.57421875 182.22265625 C21.75344741 184.90290813 21.75344741 184.90290813 22 188 C20.515 187.505 20.515 187.505 19 187 C16.14442081 190.16250946 16.14442081 190.16250946 14.5 194 C13.57583837 197.69664652 10.73997824 200.23353833 8.14453125 202.921875 C7.49871094 203.60765625 6.85289062 204.2934375 6.1875 205 C5.56230469 205.639375 4.93710937 206.27875 4.29296875 206.9375 C2.74153236 208.96498868 2.74153236 208.96498868 3.171875 211.61328125 C4.09105869 214.26243803 5.3611642 215.54918278 7.41015625 217.4140625 C10.22100689 220.21800688 12.52999322 223.44751129 14.9375 226.59765625 C16.93237406 229.07352825 16.93237406 229.07352825 19.48828125 230.98046875 C23.0430024 233.83861935 25.49383298 237.33218437 28.23046875 240.953125 C28.81441406 241.62859375 29.39835937 242.3040625 30 243 C30.66 243 31.32 243 32 243 C32 243.66 32 244.32 32 245 C33.14771329 246.18146956 34.30284213 247.3567287 35.49609375 248.4921875 C37.72862896 250.7305215 39.68231627 253.1873518 41.66796875 255.64453125 C42.10753906 256.09183594 42.54710937 256.53914063 43 257 C43.66 257 44.32 257 45 257 C45.2475 257.61875 45.495 258.2375 45.75 258.875 C46.82143729 261.13746494 46.82143729 261.13746494 49 262 C51.5489287 263.27446435 51.80641644 264.46363493 53 267 C59.20708115 274.00799484 69.20728132 273.22251454 78.01660156 273.80664062 C85.45307107 274.16761659 92.89044788 274.26138333 100.33486938 274.29855347 C102.14982148 274.30783342 103.96475553 274.32191422 105.77963257 274.34085083 C108.36506275 274.36469561 110.9496357 274.3672711 113.53515625 274.36328125 C114.31458588 274.3724054 115.0940155 274.38152954 115.89706421 274.39093018 C120.4410141 274.35269885 123.40124911 273.84033468 127 271 C128.55612174 268.59174092 128.55612174 268.59174092 129.625 265.8125 C130.0375 264.84054687 130.45 263.86859375 130.875 262.8671875 C131.84134314 260.40435464 132.74750237 257.93288389 133.625 255.4375 C135 252 135 252 138 250 C138.98221249 248.19624972 138.98221249 248.19624972 139.68359375 246.0703125 C139.96968506 245.27987549 140.25577637 244.48943848 140.55053711 243.67504883 C140.84323486 242.83353271 141.13593262 241.9920166 141.4375 241.125 C141.74244385 240.27252686 142.0473877 239.42005371 142.36157227 238.54174805 C144.66793024 232.05982293 146.89503739 225.55022526 149 219 C149.66 219 150.32 219 151 219 C151.87430519 216.81877494 152.72408501 214.63250158 153.5625 212.4375 C154.03816406 211.21933594 154.51382813 210.00117188 155.00390625 208.74609375 C156.50136971 203.11445666 155.69852039 198.63921491 152.9375 193.5625 C152.57527344 192.88316406 152.21304688 192.20382813 151.83984375 191.50390625 C151.56269531 191.00761719 151.28554688 190.51132813 151 190 C150.01 190 149.02 190 148 190 C147.90589844 189.484375 147.81179688 188.96875 147.71484375 188.4375 C146.73327042 185.09049587 145.14974447 182.09043934 143.5625 179 C143.24990234 178.38382813 142.93730469 177.76765625 142.61523438 177.1328125 C141.74621252 175.42049036 140.87323831 173.71017571 140 172 C139.33162558 170.66752191 138.663996 169.33466533 138 168 C137.34 168 136.68 168 136 168 C135.7525 167.319375 135.505 166.63875 135.25 165.9375 C133.75802092 162.43134917 131.93164489 159.28379632 130 156 C129.34 156 128.68 156 128 156 C127.76216797 155.11248047 127.76216797 155.11248047 127.51953125 154.20703125 C125.68421812 147.99130224 123.53026889 144.00366612 117.6875 140.6875 C117.130625 140.460625 116.57375 140.23375 116 140 C116 139.34 116 138.68 116 138 C103.24396294 137.54664955 91.12882564 138.61896866 78.54516602 140.71606445 Z M-156 221 C-157.1772174 222.34500471 -158.34318022 223.69991185 -159.5 225.0625 C-162.11093723 228.11989619 -164.41406824 230.1126675 -168 232 C-172.05251154 234.80558491 -174.56759158 237.95512212 -177.27734375 242 C-179 244 -179 244 -181.84765625 245.8359375 C-187.58240485 249.77280333 -192.04269015 255.69560185 -195 262 C-195.48557168 265.82811163 -194.4115721 268.4658027 -193 272 C-192.36262864 274.30912083 -191.73846693 276.62191377 -191.125 278.9375 C-189.34095027 285.06094887 -187.2842618 291.04633893 -185 297 C-184.34 297 -183.68 297 -183 297 C-182.72027344 297.87269531 -182.44054687 298.74539063 -182.15234375 299.64453125 C-177.23827166 313.95364286 -168.64567836 323.2415932 -156.12890625 331.52734375 C-153.43026398 333.39411097 -151.31836756 335.68163244 -149 338 C-144.55774334 341.42804281 -140.07306115 344.79459647 -135.21875 347.6171875 C-133 349 -133 349 -132 351 C-131.34 351 -130.68 351 -130 351 C-130 351.66 -130 352.32 -130 353 C-127.52673502 354.83728256 -125.52879319 355.89424136 -122.5 356.5 C-118.83590808 355.76718162 -117.3522515 353.80963373 -115 351 C-114.67 350.01 -114.34 349.02 -114 348 C-113.278125 348.06832031 -112.55625 348.13664063 -111.8125 348.20703125 C-108.28596699 347.94743924 -106.80278303 346.80272532 -104 344.6875 C-101.42563249 342.76879172 -99.03279575 341.01726332 -96.1875 339.51953125 C-95.465625 339.01808594 -94.74375 338.51664062 -94 338 C-94 336.68 -94 335.36 -94 334 C-93.44054687 333.73574219 -92.88109375 333.47148437 -92.3046875 333.19921875 C-85.68341531 329.75391271 -77.35332925 324.9244789 -74 318 C-73.8654406 315.42911021 -73.8654406 315.42911021 -74.234375 312.6328125 C-74.34692627 311.56877197 -74.45947754 310.50473145 -74.57543945 309.40844727 C-75.2969719 303.61585696 -76.08628716 297.83745702 -76.9375 292.0625 C-77.10701172 290.89009766 -77.27652344 289.71769531 -77.45117188 288.50976562 C-77.79057875 286.17263311 -78.1347312 283.83618429 -78.48388672 281.50048828 C-78.83934787 279.08960748 -79.17857983 276.67629644 -79.50439453 274.26123047 C-79.75165283 272.49030029 -79.75165283 272.49030029 -80.00390625 270.68359375 C-80.2196228 269.08149048 -80.2196228 269.08149048 -80.43969727 267.44702148 C-80.62459717 266.63950439 -80.80949707 265.8319873 -81 265 C-81.66 264.67 -82.32 264.34 -83 264 C-83.04898438 262.77023437 -83.09796875 261.54046875 -83.1484375 260.2734375 C-83.22351029 258.64060434 -83.29905615 257.00779288 -83.375 255.375 C-83.4059375 254.56675781 -83.436875 253.75851562 -83.46875 252.92578125 C-83.69138476 248.36176872 -83.90233971 244.14415813 -86 240 C-88.362341 238.64169459 -88.362341 238.64169459 -91.125 238.125 C-92.49011719 237.78855469 -92.49011719 237.78855469 -93.8828125 237.4453125 C-94.58148438 237.29835937 -95.28015625 237.15140625 -96 237 C-96 236.34 -96 235.68 -96 235 C-100.55244719 233.60991056 -105.10569281 232.22247793 -109.65966797 230.83740234 C-111.20578365 230.36676125 -112.75168642 229.89542011 -114.29736328 229.42333984 C-116.53100607 228.74127849 -118.76542607 228.06181616 -121 227.3828125 C-121.68054443 227.17439728 -122.36108887 226.96598206 -123.06225586 226.75125122 C-123.72233643 226.55119476 -124.38241699 226.35113831 -125.0625 226.14501953 C-126.02542969 225.85307709 -126.02542969 225.85307709 -127.0078125 225.55523682 C-129.13672339 224.96189422 -131.27759782 224.5049877 -133.4375 224.03857422 C-134.613125 223.69584473 -135.78875 223.35311523 -137 223 C-137.495 221.515 -137.495 221.515 -138 220 C-139.95740641 218.97243859 -139.95740641 218.97243859 -142.3125 218.3125 C-143.09238281 218.06113281 -143.87226563 217.80976563 -144.67578125 217.55078125 C-150.10342845 216.26456569 -152.08593507 217.35900937 -156 221 Z M-30 258 C-30.37511719 258.72445313 -30.75023437 259.44890625 -31.13671875 260.1953125 C-33.38251128 264.4379936 -35.47293639 268.37009471 -38.5625 272.0625 C-41.85384474 276.02899238 -43.79852894 280.36675013 -46 285 C-47.35547352 287.65895627 -48.71716296 290.31460613 -50.08203125 292.96875 C-51.13727383 294.93224729 -51.13727383 294.93224729 -51 297 C-52.485 297.495 -52.485 297.495 -54 298 C-55.45727411 300.54729164 -56.75271307 303.04053205 -58 305.6875 C-58.51433594 306.75000977 -58.51433594 306.75000977 -59.0390625 307.83398438 C-59.71447699 309.22992691 -60.38515775 310.62817101 -61.05078125 312.02880859 C-61.91943105 313.8326868 -62.83257145 315.6149656 -63.75 317.39453125 C-65.14418509 319.8189018 -65.14418509 319.8189018 -65 322 C-65.66 322 -66.32 322 -67 322 C-66.938125 323.010625 -66.87625 324.02125 -66.8125 325.0625 C-66.9890202 328.76942413 -67.75807771 330.69021523 -69.2381897 333.98510742 C-70.65756403 337.73917429 -71.07279321 341.66481724 -71.60546875 345.625 C-71.73440018 346.53072754 -71.8633316 347.43645508 -71.99617004 348.36962891 C-72.26536857 350.27506402 -72.52983205 352.18117351 -72.78979492 354.08789062 C-73.18648701 356.99258263 -73.59883338 359.89472483 -74.01367188 362.796875 C-74.27436234 364.65612056 -74.53415811 366.51549183 -74.79296875 368.375 C-74.91480026 369.23561035 -75.03663177 370.0962207 -75.16215515 370.98291016 C-75.79634573 375.67869047 -76.30748605 380.25134581 -76 385 C-72.39975478 389.06479299 -67.03593175 391.1399702 -62 393 C-61.34 393 -60.68 393 -60 393 C-60 393.99 -60 394.98 -60 396 C-56.2088422 397.58455366 -52.41698003 399.16741513 -48.625 400.75 C-47.56410156 401.1934375 -46.50320312 401.636875 -45.41015625 402.09375 C-39.67171077 404.48770271 -33.92405402 406.84694967 -28.13427734 409.11425781 C-26 410 -26 410 -24.16845703 411.07519531 C-21.06498547 412.39876549 -18.20670064 412.42280988 -14.84375 412.59375 C-14.14342651 412.63004517 -13.44310303 412.66634033 -12.72155762 412.70373535 C-10.48140313 412.81438326 -8.24103543 412.90906224 -6 413 C-5.2766748 413.03158203 -4.55334961 413.06316406 -3.80810547 413.09570312 C0.55918451 413.28033333 4.92318437 413.39960745 9.29394531 413.45996094 C10.77929304 413.48691944 12.26444191 413.52821431 13.74902344 413.58300781 C24.01244141 414.16961333 24.01244141 414.16961333 32.875 409.61328125 C33.94873421 408.4373523 34.99554218 407.2356288 36 406 C36.825 405.236875 37.65 404.47375 38.5 403.6875 C40.22145461 402.12716339 40.22145461 402.12716339 40 400 C40.8971875 399.5978125 40.8971875 399.5978125 41.8125 399.1875 C44.01819033 397.99012525 45.43583187 396.95521016 47 395 C47 394.01 47 393.02 47 392 C48.32 391.67 49.64 391.34 51 391 C51.0825 390.38125 51.165 389.7625 51.25 389.125 C51.4975 388.42375 51.745 387.7225 52 387 C52.61488281 386.71511719 53.22976563 386.43023437 53.86328125 386.13671875 C56.52426584 384.72109441 57.38391078 383.24812489 58.9375 380.6875 C60.67966423 377.93671437 62.15274467 375.85107394 64.5 373.5625 C69.09121636 368.85650323 72.13280345 362.8838678 75 357 C75.66 357 76.32 357 77 357 C80.40027839 353.49668287 81.54961229 350.84166786 82 346 C82.66 346 83.32 346 84 346 C85.82505013 343.59439414 85.82505013 343.59439414 87.625 340.625 C88.25664062 339.62726563 88.88828125 338.62953125 89.5390625 337.6015625 C91.16321318 335.20664169 91.16321318 335.20664169 91 333 C91.99 332.67 92.98 332.34 94 332 C95.46072639 330.01829207 95.46072639 330.01829207 96.6875 327.625 C97.12449219 326.83351563 97.56148437 326.04203125 98.01171875 325.2265625 C99.20284604 322.9490014 99.20284604 322.9490014 99 320 C97.40861366 318.41181172 97.40861366 318.41181172 95.3125 317 C94.57902344 316.47277344 93.84554687 315.94554687 93.08984375 315.40234375 C90.95370967 313.92353512 90.95370967 313.92353512 88.375 312.5625 C85.46144531 310.6456877 83.58942056 308.33535287 81.4296875 305.62109375 C79.90226456 303.74913641 79.90226456 303.74913641 77 302 C76.01 302 75.02 302 74 302 C74 301.34 74 300.68 74 300 C73.34 300 72.68 300 72 300 C71.62875 299.195625 71.62875 299.195625 71.25 298.375 C69.69347463 295.4176018 67.96564327 292.70275949 66 290 C65.34 290 64.68 290 64 290 C64 289.34 64 288.68 64 288 C62.68 288 61.36 288 60 288 C58.81819563 285.63639126 57.82527356 283.46490027 57 280.9375 C51.75006974 273.22666493 34.74165255 272.74856819 25.9375 270.9375 C23.38657039 270.40852769 20.8359003 269.87832039 18.28529358 269.34779358 C16.70939917 269.02046104 15.13327448 268.69423429 13.55686951 268.36936951 C12.10624888 268.0697474 10.65626694 267.76701329 9.20700073 267.46090698 C7.63495113 267.13260232 6.06014867 266.81736416 4.4836731 266.51101685 C3.6673642 266.34568451 2.8510553 266.18035217 2.01000977 266.01000977 C1.26606461 265.86418961 0.52211945 265.71836945 -0.24436951 265.56813049 C-0.82372757 265.38064743 -1.40308563 265.19316437 -2 265 C-2.495 264.01 -2.495 264.01 -3 263 C-5.79473596 262.22041576 -8.54294921 261.54602072 -11.375 260.9375 C-12.92472271 260.59354339 -14.47421179 260.24853203 -16.0234375 259.90234375 C-17.05863525 259.67792603 -17.05863525 259.67792603 -18.11474609 259.44897461 C-20 259 -20 259 -23 258 C-25.33299825 257.96045766 -27.66708189 257.95598268 -30 258 Z " fill="#FFFFFF" transform="translate(276,14)"/>
<path d="M0 0 C3 1 3 1 3 1 Z " fill="#FFFFFF" transform="translate(172,26)"/>
<path d="" fill="#FFFFFF" transform="translate(0,0)"/>
<path d="" fill="#FFFFFF" transform="translate(0,0)"/>
<path d="" fill="#FFFFFF" transform="translate(0,0)"/>
<path d="" fill="#FFFFFF" transform="translate(0,0)"/>
<path d="" fill="#FFFFFF" transform="translate(0,0)"/>
<path d="" fill="#FFFFFF" transform="translate(0,0)"/>
<path d="" fill="#FFFFFF" transform="translate(0,0)"/>
<path d="" fill="#FFFFFF" transform="translate(0,0)"/>
<path d="" fill="#FFFFFF" transform="translate(0,0)"/>
<path d="" fill="#FFFFFF" transform="translate(0,0)"/>
<path d="" fill="#FFFFFF" transform="translate(0,0)"/>
<path d="" fill="#FFFFFF" transform="translate(0,0)"/>
<path d="" fill="#FFFFFF" transform="translate(0,0)"/>
<path d="" fill="#FFFFFF" transform="translate(0,0)"/>
<path d="" fill="#FFFFFF" transform="translate(0,0)"/>
<path d="" fill="#FFFFFF" transform="translate(0,0)"/>
<path d="" fill="#FFFFFF" transform="translate(0,0)"/>
<path d="" fill="#FFFFFF" transform="translate(0,0)"/>
<path d="" fill="#FFFFFF" transform="translate(0,0)"/>
<path d="" fill="#FFFFFF" transform="translate(0,0)"/>
<path d="" fill="#FFFFFF" transform="translate(0,0)"/>
<path d="" fill="#FFFFFF" transform="translate(0,0)"/>
<path d="" fill="#FFFFFF" transform="translate(0,0)"/>
<path d="" fill="#FFFFFF" transform="translate(0,0)"/>
<path d="" fill="#FFFFFF" transform="translate(0,0)"/>
<path d="" fill="#FFFFFF" transform="translate(0,0)"/>
<path d="" fill="#FFFFFF" transform="translate(0,0)"/>
<path d="" fill="#FFFFFF" transform="translate(0,0)"/>
<path d="" fill="#FFFFFF" transform="translate(0,0)"/>
<path d="" fill="#FFFFFF" transform="translate(0,0)"/>
<path d="" fill="#FFFFFF" transform="translate(0,0)"/>
<path d="" fill="#FFFFFF" transform="translate(0,0)"/>
<path d="" fill="#FFFFFF" transform="translate(0,0)"/>
<path d="" fill="#FFFFFF" transform="translate(0,0)"/>
<path d="" fill="#FFFFFF" transform="translate(0,0)"/>
<path d="" fill="#FFFFFF" transform="translate(0,0)"/>
<path d="" fill="#FFFFFF" transform="translate(0,0)"/>
<path d="" fill="#FFFFFF" transform="translate(0,0)"/>
<path d="" fill="#FFFFFF" transform="translate(0,0)"/>
<path d="" fill="#FFFFFF" transform="translate(0,0)"/>
<path d="" fill="#FFFFFF" transform="translate(0,0)"/>
<path d="" fill="#FFFFFF" transform="translate(0,0)"/>
<path d="" fill="#FFFFFF" transform="translate(0,0)"/>
<path d="" fill="#FFFFFF" transform="translate(0,0)"/>
<path d="" fill="#FFFFFF" transform="translate(0,0)"/>
<path d="" fill="#FFFFFF" transform="translate(0,0)"/>
<path d="" fill="#FFFFFF" transform="translate(0,0)"/>
<path d="" fill="#FFFFFF" transform="translate(0,0)"/>
<path d="" fill="#FFFFFF" transform="translate(0,0)"/>
<path d="" fill="#FFFFFF" transform="translate(0,0)"/>
<path d="" fill="#FFFFFF" transform="translate(0,0)"/>
<path d="" fill="#FFFFFF" transform="translate(0,0)"/>
</svg>
