<?xml version="1.0" standalone="no"?>
<!DOCTYPE svg PUBLIC "-//W3C//DTD SVG 1.1//EN" "http://www.w3.org/Graphics/SVG/1.1/DTD/svg11.dtd" >
<svg>
<metadata>
Created by FontForge 20090622 at Wed Mar  5 05:04:11 2014
 By ffonts
1.2 Copyright Copr. Castcraft Software, Inc. 1990-1991.
</metadata>
<defs>
<font id="OPTICirrus-Medium" horiz-adv-x="585" >
  <font-face 
    font-family="OPTICirrus-Medium"
    font-weight="500"
    font-stretch="normal"
    units-per-em="1000"
    panose-1="0 0 0 0 0 0 0 0 0 0"
    ascent="800"
    descent="-200"
    x-height="511"
    cap-height="784"
    bbox="-47 -273 1158 1059.01"
    underline-thickness="63"
    underline-position="-83"
    stemh="102"
    stemv="116"
    unicode-range="U+0020-U+FB02"
  />
<missing-glyph horiz-adv-x="280" 
 />
    <glyph glyph-name=".notdef" horiz-adv-x="280" 
 />
    <glyph glyph-name="space" unicode=" " horiz-adv-x="188" 
d="M0 0z" />
    <glyph glyph-name="exclam" unicode="!" horiz-adv-x="173" 
d="M59 770h89v-584h-89v584zM102 128c38 0 67 -29 67 -67c0 -37 -29 -67 -67 -67c-37 0 -67 30 -67 67c0 38 30 67 67 67z" />
    <glyph glyph-name="quotedbl" unicode="&#x22;" horiz-adv-x="314" 
d="M105 501h-23l-24 184c-3 30 -17 114 12 138c12 9 33 10 47 1c31 -22 15 -98 10 -134zM268 501h-23l-23 184c-4 30 -17 114 12 138c11 9 33 10 47 1c30 -22 14 -98 10 -134z" />
    <glyph glyph-name="numbersign" unicode="#" horiz-adv-x="869" 
d="M425 775h88l-87 -251h167l88 251h89l-85 -255h171l-21 -72h-177l-59 -168h175l-25 -78h-176l-87 -249h-91l86 252h-164l-92 -252h-87l85 252h-174l26 77h174l58 167h-171l27 75h170zM341 282h167l60 166h-168z" />
    <glyph glyph-name="dollar" unicode="$" horiz-adv-x="539" 
d="M251 784v69h57v-69h195v-215h-118v112h-74v-230h77c129 0 134 -82 134 -170v-112c0 -91 -5 -168 -134 -169c0 0 -45 -1 -77 -1v-83h-58v84h-203v225h118v-123h83v246h-68c-130 0 -133 79 -133 170v96c0 91 3 171 133 170h68zM311 102c66 0 87 7 87 74v96
c0 70 -43 76 -87 76v-246zM251 681c-65 0 -76 -7 -76 -74v-82c0 -64 17 -75 76 -74v230z" />
    <glyph glyph-name="percent" unicode="%" horiz-adv-x="866" 
d="M605 772h63l-375 -778h-65zM51 681c0 53 25 85 93 85h125c70 0 92 -32 92 -85v-249c0 -56 -22 -85 -92 -85h-125c-68 0 -93 29 -93 85v249zM145 432h122v249h-122v-249zM538 334c0 54 25 85 93 85h125c69 0 92 -31 92 -85v-249c0 -55 -23 -85 -92 -85h-125
c-68 0 -93 30 -93 85v249zM632 85h121v249h-121v-249z" />
    <glyph glyph-name="ampersand" unicode="&#x26;" horiz-adv-x="739" 
d="M243 576l59 -66l65 63v112h-124v-109zM176 223l105 -105l122 123l-103 107zM123 682c0 67 29 102 113 102h130c84 0 115 -35 115 -102v-150l-99 -105l103 -107l78 75l75 -81l-73 -78l159 -164l-79 -79l-159 165l-51 -50c-88 -86 -109 -127 -185 -107
c-43 12 -189 164 -199 204c-16 61 24 79 99 154l68 68l-95 103v152zM367 784h-131h131z" />
    <glyph glyph-name="quotesingle" unicode="'" horiz-adv-x="151" 
d="M99 501h-24l-23 188c-4 39 -20 114 12 134c10 5 35 7 47 -1c31 -20 13 -104 11 -128z" />
    <glyph glyph-name="parenleft" unicode="(" horiz-adv-x="240" 
d="M225 781v-78c-82 -71 -86 -165 -87 -215v-391c0 -65 7 -142 86 -217v-86c-140 88 -173 166 -174 294v412c2 138 11 198 175 281z" />
    <glyph glyph-name="parenright" unicode=")" horiz-adv-x="240" 
d="M224 500v-412c-1 -128 -34 -206 -174 -294v86c78 75 86 152 86 217v391c-1 50 -5 144 -87 215v78c164 -83 173 -143 175 -281z" />
    <glyph glyph-name="asterisk" unicode="*" horiz-adv-x="485" 
d="M199 782h109l-27 -174l152 83l35 -100l-171 -26l131 -123l-90 -66l-78 159l-76 -159l-87 63l122 122l-170 25l27 102l158 -77z" />
    <glyph glyph-name="plus" unicode="+" horiz-adv-x="740" 
d="M351 673h74v-301h299v-77h-299v-295h-74v295h-301v79h301v299z" />
    <glyph glyph-name="comma" unicode="," horiz-adv-x="220" 
d="M114 115h81l-94 -276h-79z" />
    <glyph glyph-name="hyphen" unicode="-" horiz-adv-x="355" 
d="M49 310h292v-108h-292v108z" />
    <glyph glyph-name="period" unicode="." horiz-adv-x="198" 
d="M113 128c37 0 67 -29 67 -67c0 -37 -30 -67 -67 -67c-38 0 -68 30 -68 67c0 38 30 67 68 67z" />
    <glyph glyph-name="slash" unicode="/" horiz-adv-x="441" 
d="M355 781h71l-306 -781h-71z" />
    <glyph glyph-name="zero" unicode="0" 
d="M547 169c-2 -91 -5 -169 -134 -169h-212c-129 0 -133 80 -133 170v444c0 91 4 170 133 170h214c129 0 133 -82 132 -170v-445zM422 607c0 67 -12 74 -77 74h-76c-60 0 -76 -7 -76 -74v-431c0 -67 12 -74 76 -74h76c65 0 77 7 77 74v431z" />
    <glyph glyph-name="one" unicode="1" 
d="M369 791v-689h67v-102h-258v102h67v534l-127 -63v85zM436 102h-67h67z" />
    <glyph glyph-name="two" unicode="2" 
d="M420 607c2 67 -11 74 -76 74h-64c-61 0 -77 -7 -77 -74v-65h-122v72c0 91 3 170 133 170h193c129 0 136 -82 136 -170v-181l-344 -213v-118h225v104h119v-206h-468v278l345 213v116z" />
    <glyph glyph-name="three" unicode="3" 
d="M72 205h126v-29c0 -67 11 -74 76 -74h70c67 0 76 7 76 74v87c0 67 -11 75 -76 75h-144v105l207 238h-214v-78h-121v181h473v-104l-202 -244c-1 0 68 0 68 0c130 0 136 -81 136 -170v-97c0 -91 -5 -169 -134 -169h-208c-130 0 -133 80 -133 170v35z" />
    <glyph glyph-name="four" unicode="4" 
d="M348 783h129v-458h83v-100h-83v-225h-119v227h-319l1 128zM148 324h209v298z" />
    <glyph glyph-name="five" unicode="5" 
d="M68 240h126v-64c0 -67 12 -74 76 -74h71c64 0 77 7 77 74v138c0 67 -11 76 -76 76h-268v393h425v-101h-294v-190h204c130 0 134 -83 134 -172v-151c0 -91 -5 -169 -135 -169h-207c-129 0 -133 80 -133 170v70z" />
    <glyph glyph-name="six" unicode="6" 
d="M536 169c0 -91 -3 -169 -133 -169h-198c-130 0 -133 80 -133 170v444c0 87 10 170 137 170h197c129 0 134 -79 134 -169v-42h-125v34c-4 67 -12 74 -76 74h-65c-60 0 -76 -7 -76 -74v-156h205c130 -1 133 -82 133 -170v-112zM413 274c0 67 -12 74 -77 74h-138v-172
c0 -67 10 -74 75 -74h63c65 0 77 7 77 74v98z" />
    <glyph glyph-name="seven" unicode="7" 
d="M86 784h442v-106l-296 -678h-121l290 681h-207v-83h-108v186z" />
    <glyph glyph-name="eight" unicode="8" 
d="M410 607c0 67 -11 74 -76 74h-61c-60 0 -76 -7 -76 -74v-93c0 -67 11 -74 76 -74h61c65 0 76 7 76 74v93zM410 269c0 67 -11 74 -76 74h-61c-62 0 -76 -7 -76 -74v-93c0 -67 11 -74 76 -74h61c65 0 76 7 76 74v93zM72 264c0 74 -8 102 72 130c-64 26 -72 55 -72 116v104
c0 91 3 170 133 170h196c130 0 134 -82 134 -170v-91c0 -24 -2 -54 -9 -71c-11 -27 -29 -41 -62 -57c63 -31 69 -51 69 -120v-106c0 -91 -5 -169 -134 -169h-194c-130 0 -133 80 -133 170v94z" />
    <glyph glyph-name="nine" unicode="9" 
d="M72 614c0 91 3 169 133 169h198c130 0 133 -80 133 -170v-444c0 -87 -10 -170 -137 -170h-197c-129 0 -134 79 -134 169v42h125v-34c4 -67 12 -74 76 -74h65c60 0 76 7 76 74v156h-205c-130 1 -133 82 -133 170v112zM195 509c0 -67 12 -74 77 -74h138v172
c0 67 -10 74 -75 74h-63c-65 0 -77 -7 -77 -74v-98z" />
    <glyph glyph-name="colon" unicode=":" horiz-adv-x="198" 
d="M116 128c37 0 67 -29 67 -67c0 -37 -30 -67 -67 -67c-38 0 -67 30 -67 67c0 38 29 67 67 67zM116 503c37 0 67 -29 67 -67s-30 -67 -67 -67c-38 0 -67 30 -67 67c0 38 29 67 67 67z" />
    <glyph glyph-name="semicolon" unicode=";" horiz-adv-x="220" 
d="M100 113h84l-93 -274h-82zM156 503c37 0 67 -29 67 -67s-30 -67 -67 -67c-38 0 -67 30 -67 67c0 38 29 67 67 67z" />
    <glyph glyph-name="less" unicode="&#x3c;" horiz-adv-x="789" 
d="M774 652v-79l-600 -240l600 -241v-78l-724 288v65z" />
    <glyph glyph-name="equal" unicode="=" horiz-adv-x="739" 
d="M49 484h675v-76h-675v76zM49 258h675v-76h-675v76z" />
    <glyph glyph-name="greater" unicode="&#x3e;" horiz-adv-x="789" 
d="M50 657l724 -292v-67l-725 -282v78l608 236l-607 247v80z" />
    <glyph glyph-name="question" unicode="?" horiz-adv-x="428" 
d="M414 519c0 -91 -5 -169 -134 -169h-54v-164h-95v246h179v262h-175v-109h-85v29c0 91 1 170 133 170h97c129 0 134 -82 134 -170v-95zM176 128c38 0 67 -29 67 -67c0 -37 -29 -67 -67 -67c-37 0 -67 30 -67 67c0 38 30 67 67 67z" />
    <glyph glyph-name="at" unicode="@" horiz-adv-x="1047" 
d="M634 184c-60 -83 -114 -111 -193 -103c-53 4 -103 32 -133 94c-36 78 -11 202 45 288c63 92 130 132 213 128c42 -2 86 -22 111 -71c11 -19 15 -37 16 -40l26 92h91l-65 -231c-9 -34 -44 -131 -11 -167c19 -22 49 -24 77 -19c66 11 112 64 142 137c35 83 36 234 -28 325
c-85 122 -256 159 -361 155c-134 -6 -281 -61 -381 -233c-69 -121 -82 -308 -14 -440c74 -140 229 -204 353 -214c141 -12 258 23 411 112l24 -39c-209 -141 -448 -168 -631 -83c-182 84 -257 234 -273 375c-14 124 25 333 183 458c153 118 390 137 538 83
c140 -53 224 -150 249 -282c19 -96 1 -275 -104 -370c-50 -46 -138 -72 -195 -56c-50 15 -76 43 -90 101zM470 464c-54 -74 -93 -198 -70 -265c10 -29 32 -48 59 -55c33 -9 69 5 99 30c62 53 107 207 100 267c-3 34 -18 59 -49 75c-28 15 -58 12 -85 -1
c-21 -12 -38 -29 -54 -51z" />
    <glyph glyph-name="A" unicode="A" horiz-adv-x="644" 
d="M241 784h194l151 -682h62v-102h-168l-55 245h-169l-50 -245h-175v102h61zM273 345h133l-67 356z" />
    <glyph glyph-name="B" unicode="B" horiz-adv-x="617" 
d="M236 681v-222h149c65 0 76 7 76 74v74c0 67 -11 74 -76 74h-149zM236 365v-263h152c64 0 77 7 77 74v115c0 67 -12 74 -77 74h-152zM50 0v102h61v579h-61v103h402c130 0 134 -82 134 -170v-73c0 -106 -66 -117 -100 -128c33 -10 112 -8 112 -148v-96
c0 -75 -8 -152 -134 -169h-414z" />
    <glyph glyph-name="C" unicode="C" horiz-adv-x="523" 
d="M183 0c-130 0 -133 80 -133 170v444c0 91 3 170 133 170h320v-241h-125v138h-127c-65 0 -76 -7 -76 -74v-431c0 -67 11 -74 76 -74h127v143h125v-245h-320z" />
    <glyph glyph-name="D" unicode="D" horiz-adv-x="597" 
d="M50 0v102h61v579h-61v103h393c130 0 134 -82 134 -170v-445c0 -91 -4 -169 -134 -169h-393zM376 102c65 0 76 7 76 74v431c0 67 -37 74 -78 74h-138v-579h140z" />
    <glyph glyph-name="E" unicode="E" horiz-adv-x="597" 
d="M50 784h517v-242h-125v139h-206v-230h225v-102h-225v-247h219v141h125v-243h-530v102h61v579h-61v103z" />
    <glyph glyph-name="F" unicode="F" horiz-adv-x="555" 
d="M50 784h494v-242h-125v139h-183v-230h232v-106h-232v-243h62v-102h-248v102h61v579h-61v103z" />
    <glyph glyph-name="G" unicode="G" horiz-adv-x="558" 
d="M251 681c-65 0 -76 -7 -76 -74v-431c0 -67 11 -74 76 -74h163v236h-129v109h254v-447h-356c-130 0 -133 80 -133 170v444c0 91 3 170 133 170h356v-242h-126v139h-162z" />
    <glyph glyph-name="H" unicode="H" horiz-adv-x="659" 
d="M50 784h186v-343h217v343h187v-103h-62v-579h62v-102h-187v341h-217v-341h-186v102h61v579h-61v103z" />
    <glyph glyph-name="I" unicode="I" horiz-adv-x="317" 
d="M50 784h248v-103h-62v-579h62v-102h-248v102h61v579h-61v103z" />
    <glyph glyph-name="J" unicode="J" horiz-adv-x="401" 
d="M38 0v102h81c65 0 76 7 76 74v505h-63v103h251v-103h-63v-512c0 -91 -4 -169 -134 -169h-148z" />
    <glyph glyph-name="K" unicode="K" horiz-adv-x="647" 
d="M236 440l211 344h160v-103h-81l-154 -243c138 2 203 -11 203 -158v-178h63v-102h-188v224c0 94 -7 115 -109 115h-105v-237h63v-102h-249v102h61v579h-61v103h247v-103h-61v-241z" />
    <glyph glyph-name="L" unicode="L" horiz-adv-x="540" 
d="M50 784h245v-103h-59v-579h170v161h125v-263h-481v102h61v579h-61v103z" />
    <glyph glyph-name="M" unicode="M" horiz-adv-x="843" 
d="M50 784h185l200 -423l191 423h198v-103h-61v-579h61v-102h-175v583l-174 -368h-85l-165 346v-561h-175v102h61v579h-61v103z" />
    <glyph glyph-name="N" unicode="N" horiz-adv-x="700" 
d="M50 784h189l274 -526v526h165v-103h-54v-681h-110l-289 550v-550h-175v102h61v579h-61v103z" />
    <glyph glyph-name="O" unicode="O" horiz-adv-x="568" 
d="M549 169c0 -91 -5 -169 -134 -169h-232c-130 0 -133 80 -133 170v444c0 91 3 170 133 170h232c129 0 134 -82 134 -170v-445zM424 607c0 67 -11 74 -76 74h-97c-60 0 -76 -7 -76 -74v-431c0 -67 11 -74 76 -74h97c65 0 76 7 76 74v431z" />
    <glyph glyph-name="P" unicode="P" horiz-adv-x="584" 
d="M431 784c129 0 134 -82 134 -170v-105c0 -91 -5 -169 -134 -169h-195v-238h59v-102h-245v102h61v579h-61v103h381zM236 681v-239h128c64 0 76 7 76 74v91c0 67 -12 74 -76 74h-128z" />
    <glyph glyph-name="Q" unicode="Q" horiz-adv-x="568" 
d="M424 607c0 67 -11 74 -76 74h-97c-60 0 -76 -7 -76 -74v-431c0 -67 11 -74 76 -74h97c65 0 76 7 76 74v431zM183 0c-147 0 -133 80 -133 170v444c0 91 3 170 133 170h232c129 0 134 -82 134 -170v-445c0 -91 7 -169 -134 -169h-64v-105h-115v105h-53z" />
    <glyph glyph-name="R" unicode="R" horiz-adv-x="651" 
d="M236 681v-231h132c65 0 76 7 76 74v83c0 67 -11 74 -76 74h-132zM236 357v-357h-186v102h61v579h-61v103h385c130 0 134 -82 134 -170v-73c0 -106 -43 -117 -77 -128c74 -31 90 -60 90 -153v-158h61v-102h-186v282c0 58 -23 75 -77 75h-144z" />
    <glyph glyph-name="S" unicode="S" horiz-adv-x="542" 
d="M50 0v225h118v-123h152c65 0 78 7 78 74v96c0 70 -37 76 -80 76h-135c-130 -5 -133 79 -133 170v96c0 91 3 170 133 170h320v-215h-118v112h-134c-65 0 -76 -7 -76 -74v-82c0 -67 11 -74 76 -74h137c129 0 135 -82 135 -170v-112c0 -91 -6 -169 -135 -169h-338z" />
    <glyph glyph-name="T" unicode="T" horiz-adv-x="606" 
d="M40 784h558v-215h-114v112h-103v-579h61v-102h-248v102h62v579h-103v-112h-113v215z" />
    <glyph glyph-name="U" unicode="U" horiz-adv-x="668" 
d="M111 681h-61v103h186v-608c0 -67 12 -74 77 -74h73c65 0 77 7 77 74l1 608h185v-103h-61v-512c0 -91 -5 -169 -135 -169h-209c-129 0 -133 80 -133 170v511z" />
    <glyph glyph-name="V" unicode="V" horiz-adv-x="628" 
d="M31 784h168l136 -676l133 676h164v-103h-62l-145 -681h-189l-144 681h-61v103z" />
    <glyph glyph-name="W" unicode="W" horiz-adv-x="950" 
d="M32 784h169l98 -570l137 570h119l152 -571l79 571h167v-103h-61l-118 -682h-109l-170 627l-140 -626h-119l-143 681h-61v103z" />
    <glyph glyph-name="X" unicode="X" horiz-adv-x="609" 
d="M60 784h145l128 -268l117 268h145v-103h-56l-147 -281l147 -298h56v-102h-145l-133 277l-118 -277h-155v102h57l155 298l-137 281h-59v103z" />
    <glyph glyph-name="Y" unicode="Y" horiz-adv-x="627" 
d="M30 784h145l159 -321l158 321h138v-103h-56l-176 -330v-249h57v-102h-246v102h61v249l-182 330h-58v103z" />
    <glyph glyph-name="Z" unicode="Z" horiz-adv-x="589" 
d="M50 784h502v-102l-358 -580h256v138h118v-240h-518v102l356 579h-237v-133h-119v236z" />
    <glyph glyph-name="bracketleft" unicode="[" horiz-adv-x="218" 
d="M50 681c0 38 -8 103 63 103h85v-74h-35c-20 0 -22 -8 -22 -25v-788c0 -19 2 -25 22 -25h35v-74h-85c-71 0 -63 64 -63 103v780z" />
    <glyph glyph-name="backslash" unicode="\" horiz-adv-x="456" 
d="M49 830h68l323 -853h-68z" />
    <glyph glyph-name="bracketright" unicode="]" horiz-adv-x="218" 
d="M198 -99c0 -39 8 -103 -63 -103h-85v74h35c20 0 22 6 22 25v788c0 17 -2 25 -22 25h-35v74h85c71 0 63 -65 63 -103v-780z" />
    <glyph glyph-name="asciicircum" unicode="^" horiz-adv-x="426" 
d="M160 730h125l121 -163h-104l-78 100l-81 -99h-103z" />
    <glyph glyph-name="underscore" unicode="_" horiz-adv-x="564" 
d="M51 -89h585v-55h-585v55z" />
    <glyph glyph-name="grave" unicode="`" horiz-adv-x="314" 
d="M49 730h150l101 -163h-90l-159 158z" />
    <glyph glyph-name="a" unicode="a" horiz-adv-x="528" 
d="M172 86h160v111h-160v-111zM165 0c-84 0 -115 35 -115 102v78c0 67 31 102 115 102h166v127h-159v-70h-114v70c0 67 31 102 115 102h153c84 0 122 -35 122 -102v-307h60v-102h-343z" />
    <glyph glyph-name="b" unicode="b" horiz-adv-x="523" 
d="M203 102h158v307h-158v-307zM86 0v681h-61v103h178v-273h161c84 0 114 -35 114 -102v-308c0 -67 -30 -102 -114 -102z" />
    <glyph glyph-name="c" unicode="c" horiz-adv-x="448" 
d="M428 511v-181h-117v79h-144v-307h144v79h117v-181h-263c-84 0 -115 35 -115 102v307c0 67 31 102 115 102h263z" />
    <glyph glyph-name="d" unicode="d" horiz-adv-x="516" 
d="M183 102h151v307h-151v-307zM181 0c-84 0 -115 35 -115 102v307c0 67 31 102 115 102h153v170h-57v103h174v-682h62v-102h-332z" />
    <glyph glyph-name="e" unicode="e" horiz-adv-x="461" 
d="M169 298h154v124h-154v-124zM442 215h-274v-118h156v59h119v-55c-1 -67 -43 -102 -127 -102h-151c-84 0 -115 35 -115 102v308c0 67 31 102 115 102h161c84 0 116 -35 116 -102v-194z" />
    <glyph glyph-name="f" unicode="f" horiz-adv-x="309" 
d="M308 784v-103h-80v-170h83v-102h-83v-307h65v-102h-243v102h61v307h-61v102h61v171c0 67 31 102 115 102h82z" />
    <glyph glyph-name="g" unicode="g" horiz-adv-x="522" 
d="M168 102h155v307h-155v-307zM441 -114c0 -67 -31 -102 -115 -102h-143c-84 0 -115 35 -115 102v51h118v-55h137v118h-158c-84 0 -115 35 -115 102v307c0 67 31 102 115 102h328v-102h-52v-523z" />
    <glyph glyph-name="h" unicode="h" horiz-adv-x="591" 
d="M395 511c85 0 115 -35 115 -102v-307h62v-102h-179v409h-165v-307h57v-102h-235v102h61v579h-61v103h178v-273h167z" />
    <glyph glyph-name="i" unicode="i" horiz-adv-x="309" 
d="M50 511h178v-409h62v-102h-240v102h61v307h-61v102zM157 717c40 0 69 -31 69 -67c0 -40 -29 -69 -67 -69c-39 0 -69 29 -69 67c0 37 30 69 67 69z" />
    <glyph glyph-name="j" unicode="j" horiz-adv-x="309" 
d="M157 717c40 0 69 -31 69 -67c0 -40 -29 -69 -67 -69c-39 0 -69 29 -69 67c0 37 30 69 67 69zM58 -215v102h53v522h-61v102h178v-624c0 -67 -30 -102 -114 -102h-56z" />
    <glyph glyph-name="k" unicode="k" horiz-adv-x="551" 
d="M50 784h178v-485l154 212h135v-102h-70l-111 -137l165 -170h63v-102h-134l-202 220v-220h-178v102h61v579h-61v103z" />
    <glyph glyph-name="l" unicode="l" horiz-adv-x="309" 
d="M50 784h178v-682h62v-102h-240v102h61v579h-61v103z" />
    <glyph glyph-name="m" unicode="m" horiz-adv-x="889" 
d="M693 511c84 0 115 -35 115 -102v-307h40v-102h-157v409h-171v-307h58v-102h-179v409h-171v-307h70v-102h-248v102h61v307h-61v102h643z" />
    <glyph glyph-name="n" unicode="n" horiz-adv-x="582" 
d="M386 511c84 0 115 -35 115 -102v-307h62v-102h-179v409h-156v-307h57v-102h-235v102h61v307h-61v102h336z" />
    <glyph glyph-name="o" unicode="o" horiz-adv-x="452" 
d="M50 409c0 67 31 102 115 102h153c84 0 115 -35 115 -102v-307c0 -67 -31 -102 -115 -102h-153c-84 0 -115 35 -115 102v307zM167 102h149v307h-149v-307z" />
    <glyph glyph-name="p" unicode="p" horiz-adv-x="519" 
d="M194 102h157v307h-157v-307zM351 511c84 0 115 -35 115 -102v-307c0 -67 -31 -102 -115 -102h-157v-215h-117v624h-61v102h335z" />
    <glyph glyph-name="q" unicode="q" horiz-adv-x="519" 
d="M185 102h155v307h-155v-307zM183 0c-84 0 -115 35 -115 102v307c0 67 31 102 115 102h332v-102h-58v-620h-117v211h-157z" />
    <glyph glyph-name="r" unicode="r" horiz-adv-x="438" 
d="M439 303h-111v106h-100v-307h60v-102h-238v102h61v307h-61v102h274c84 0 115 -35 115 -102v-106z" />
    <glyph glyph-name="s" unicode="s" horiz-adv-x="451" 
d="M432 102c0 -61 -31 -102 -115 -102h-267v153h114v-65h159v128h-160c-85 0 -113 35 -113 102v91c0 67 31 102 115 102h258v-150h-105v63h-155v-121h154c84 0 115 -35 115 -102v-99z" />
    <glyph glyph-name="t" unicode="t" horiz-adv-x="320" 
d="M111 409h-61v102h61v153h117v-153h73v-102h-73v-307h73v-102h-75c-84 0 -115 35 -115 102v307z" />
    <glyph glyph-name="u" unicode="u" horiz-adv-x="582" 
d="M111 409h-61v102h178v-409h155v307h-59v102h177v-409h57v-102h-332c-84 0 -115 35 -115 102v307z" />
    <glyph glyph-name="v" unicode="v" horiz-adv-x="499" 
d="M30 511h150l86 -408l86 408h149v-102h-59l-94 -409h-164l-102 409h-52v102z" />
    <glyph glyph-name="w" unicode="w" horiz-adv-x="775" 
d="M31 511h155l61 -397l96 397h120l104 -397l53 397h156v-102h-57l-76 -409h-140l-97 341l-95 -341h-146l-76 409h-58v102z" />
    <glyph glyph-name="x" unicode="x" horiz-adv-x="514" 
d="M38 511h132l73 -130c16 -30 20 -37 23 -53c6 16 7 23 22 50l73 133h132v-102h-61l-101 -151l111 -156h61v-102h-138l-76 133c-9 16 -16 28 -25 47c-7 -19 -11 -27 -22 -47l-75 -133h-129v102h62l102 154l-108 153h-56v102z" />
    <glyph glyph-name="y" unicode="y" horiz-adv-x="506" 
d="M31 511h132l89 -228c9 -23 13 -27 17 -50c5 23 11 35 16 51l88 227h135v-102h-60l-247 -619h-109l121 313l-127 306h-55v102z" />
    <glyph glyph-name="z" unicode="z" horiz-adv-x="474" 
d="M50 511h386v-94l-253 -326h164v65h108v-156h-405v92l250 323h-140v-67h-110v163z" />
    <glyph glyph-name="braceleft" unicode="{" horiz-adv-x="534" 
d="M519 858v-34c-147 -25 -177 -73 -181 -208v-88c0 -54 6 -122 -63 -173c-58 -44 -142 -52 -178 -60c155 -19 239 -53 239 -234v-86c0 -67 -8 -130 74 -177c37 -22 57 -24 107 -34v-33c-42 1 -172 12 -227 74c-50 53 -42 94 -45 164v103c0 60 12 111 -61 159
c-31 20 -89 32 -135 41v51l25 5c126 29 171 56 171 183v106c0 80 -2 158 103 208c52 25 101 31 171 33z" />
    <glyph glyph-name="bar" unicode="|" horiz-adv-x="133" 
d="M51 974h59v-1172h-59v1172z" />
    <glyph glyph-name="braceright" unicode="}" horiz-adv-x="534" 
d="M51 860c55 -3 174 -12 231 -77c48 -52 40 -92 42 -166v-95c0 -56 -7 -113 54 -157c45 -33 95 -38 141 -46v-50c-137 -25 -196 -43 -196 -199v-95c-4 -89 4 -148 -88 -202c-50 -30 -118 -39 -186 -40v32c137 26 182 70 182 205v88c2 65 -11 125 60 177
c57 42 134 51 182 59c-162 26 -240 55 -240 237v87c0 76 9 126 -81 179c-29 17 -61 22 -101 30v33z" />
    <glyph glyph-name="asciitilde" unicode="~" horiz-adv-x="461" 
d="M384 714h63c-9 -47 -24 -97 -74 -121c-62 -28 -125 8 -187 30c-26 9 -41 5 -54 -7c-15 -14 -14 -25 -19 -39h-64c10 49 27 103 84 124c74 27 111 -26 184 -36c34 -5 50 8 67 49z" />
    <glyph glyph-name="Adieresis" unicode="&#xc4;" horiz-adv-x="644" 
d="M239 784h194l151 -682h61v-102h-168l-54 245h-170l-50 -245h-175v102h62zM270 345h133l-67 356zM239 969c39 0 71 -34 71 -74c0 -39 -33 -70 -72 -70c-40 0 -73 33 -73 73s34 71 74 71zM438 969c39 0 71 -34 71 -74c0 -39 -33 -70 -73 -70c-39 0 -72 33 -72 73
s34 71 74 71z" />
    <glyph glyph-name="Aring" unicode="&#xc5;" horiz-adv-x="644" 
d="M239 784h194l151 -682h61v-102h-168l-54 245h-170l-50 -245h-175v102h62zM270 345h133l-67 356zM347 1059c64 -1 114 -54 114 -119s-54 -115 -119 -115s-115 55 -115 119c0 65 55 116 120 115zM283 942c0 -34 27 -60 61 -60s62 26 62 60s-28 61 -62 61s-61 -27 -61 -61z
" />
    <glyph glyph-name="Ccedilla" unicode="&#xc7;" horiz-adv-x="523" 
d="M270 0h-87c-130 0 -133 80 -133 170v444c0 91 3 170 133 170h320v-241h-125v138h-127c-65 0 -76 -7 -76 -74v-431c0 -67 11 -74 76 -74h127v143h125v-245h-162l-47 -53h34c65 0 69 -41 69 -86v-38c0 -46 -3 -86 -67 -86h-105c-65 0 -66 40 -66 86v17h63v-14
c0 -34 5 -37 38 -37h35c33 0 38 3 38 37v34c0 33 -6 38 -38 38h-72v52z" />
    <glyph glyph-name="Eacute" unicode="&#xc9;" horiz-adv-x="589" 
d="M50 784h517v-242h-125v139h-206v-230h225v-102h-225v-247h219v141h125v-243h-530v102h61v579h-61v103zM281 986h146l-159 -160h-88z" />
    <glyph glyph-name="Ntilde" unicode="&#xd1;" horiz-adv-x="705" 
d="M50 784h189l274 -526v526h165v-103h-54v-681h-110l-289 550v-550h-175v102h61v579h-61v103zM527 961h63c-9 -46 -24 -96 -74 -120c-61 -28 -125 10 -186 29c-22 7 -41 6 -55 -6c-15 -14 -14 -25 -19 -39h-64c10 49 27 102 84 124c74 27 112 -26 184 -36c34 -5 50 7 67 48
z" />
    <glyph glyph-name="Odieresis" unicode="&#xd6;" horiz-adv-x="568" 
d="M549 169c0 -91 -5 -169 -134 -169h-232c-130 0 -133 80 -133 170v444c0 91 3 170 133 170h232c129 0 134 -82 134 -170v-445zM424 607c0 67 -11 74 -76 74h-97c-60 0 -76 -7 -76 -74v-431c0 -67 11 -74 76 -74h97c65 0 76 7 76 74v431zM218 969c40 0 72 -34 72 -74
c0 -39 -33 -70 -73 -70s-73 33 -73 73s34 71 74 71zM417 969c40 0 72 -34 72 -74c0 -39 -33 -70 -73 -70s-73 33 -73 73s34 71 74 71z" />
    <glyph glyph-name="Udieresis" unicode="&#xdc;" horiz-adv-x="668" 
d="M111 681h-61v103h186v-608c0 -67 12 -74 77 -74h73c65 0 77 7 77 74v608h186v-103h-61v-512c0 -91 -5 -169 -135 -169h-209c-129 0 -133 80 -133 170v511zM251 969c40 0 72 -34 72 -74c0 -39 -33 -70 -73 -70s-73 33 -73 73s34 71 74 71zM450 969c40 0 72 -34 72 -74
c0 -39 -33 -70 -73 -70s-73 33 -73 73s34 71 74 71z" />
    <glyph glyph-name="aacute" unicode="&#xe1;" horiz-adv-x="528" 
d="M172 86h160v111h-160v-111zM165 0c-84 0 -115 35 -115 102v78c0 67 31 102 115 102h166v127h-159v-70h-114v70c0 67 31 102 115 102h153c84 0 122 -35 122 -102v-307h60v-102h-343zM249 703h146l-159 -160h-88z" />
    <glyph glyph-name="agrave" unicode="&#xe0;" horiz-adv-x="528" 
d="M172 86h160v111h-160v-111zM165 0c-84 0 -115 35 -115 102v78c0 67 31 102 115 102h166v127h-159v-70h-114v70c0 67 31 102 115 102h153c84 0 122 -35 122 -102v-307h60v-102h-343zM127 706h150l101 -163h-89z" />
    <glyph glyph-name="acircumflex" unicode="&#xe2;" horiz-adv-x="528" 
d="M172 86h160v111h-160v-111zM165 0c-84 0 -115 35 -115 102v78c0 67 31 102 115 102h166v127h-159v-70h-114v70c0 67 31 102 115 102h153c84 0 122 -35 122 -102v-307h60v-102h-343zM192 702h125l121 -161h-104l-78 99l-81 -99h-103z" />
    <glyph glyph-name="adieresis" unicode="&#xe4;" horiz-adv-x="528" 
d="M172 86h160v111h-160v-111zM165 0c-84 0 -115 35 -115 102v78c0 67 31 102 115 102h166v127h-159v-70h-114v70c0 67 31 102 115 102h153c84 0 122 -35 122 -102v-307h60v-102h-343zM161 688c40 0 72 -35 72 -74c0 -40 -33 -71 -73 -71s-72 33 -72 73s34 72 73 72z
M360 688c40 0 72 -35 72 -74c0 -40 -33 -71 -73 -71s-73 33 -73 73s34 72 74 72z" />
    <glyph glyph-name="atilde" unicode="&#xe3;" horiz-adv-x="528" 
d="M172 86h160v111h-160v-111zM165 0c-84 0 -115 35 -115 102v78c0 67 31 102 115 102h166v127h-159v-70h-114v70c0 67 31 102 115 102h153c84 0 122 -35 122 -102v-307h60v-102h-343zM398 680h62c-9 -47 -24 -97 -74 -121c-61 -28 -125 8 -186 30c-26 9 -41 5 -55 -7
c-14 -14 -13 -25 -19 -39h-63c10 49 27 102 84 124c73 27 111 -26 184 -36c34 -5 50 8 67 49z" />
    <glyph glyph-name="aring" unicode="&#xe5;" horiz-adv-x="528" 
d="M172 86h160v111h-160v-111zM165 0c-84 0 -115 35 -115 102v78c0 67 31 102 115 102h166v127h-159v-70h-114v70c0 67 31 102 115 102h153c84 0 122 -35 122 -102v-307h60v-102h-343zM256 777c64 0 114 -54 114 -119s-54 -115 -119 -115s-115 55 -115 120
c0 64 55 114 120 114zM192 660c0 -34 27 -60 61 -60c35 0 62 26 62 60s-27 62 -62 62c-34 0 -61 -28 -61 -62z" />
    <glyph glyph-name="ccedilla" unicode="&#xe7;" horiz-adv-x="448" 
d="M220 0h-55c-84 0 -115 35 -115 102v307c0 67 31 102 115 102h263v-181h-117v79h-144v-307h144v79h117v-181h-137l-50 -58h34c65 0 68 -41 68 -85v-39c0 -45 -2 -85 -67 -85h-104c-65 0 -66 40 -66 85v17h62v-13c0 -35 6 -38 39 -38h35c33 0 38 3 38 38v34
c0 33 -6 37 -38 37h-73v52z" />
    <glyph glyph-name="eacute" unicode="&#xe9;" horiz-adv-x="461" 
d="M169 298h154v124h-154v-124zM442 215h-274v-118h156v59h119v-55c-1 -67 -43 -102 -127 -102h-151c-84 0 -115 35 -115 102v308c0 67 31 102 115 102h161c84 0 116 -35 116 -102v-194zM242 703h147l-159 -160h-89z" />
    <glyph glyph-name="egrave" unicode="&#xe8;" horiz-adv-x="461" 
d="M169 298h154v124h-154v-124zM442 215h-274v-118h156v59h119v-55c-1 -67 -43 -102 -127 -102h-151c-84 0 -115 35 -115 102v308c0 67 31 102 115 102h161c84 0 116 -35 116 -102v-194zM100 706h150l101 -163h-90z" />
    <glyph glyph-name="ecircumflex" unicode="&#xea;" horiz-adv-x="461" 
d="M169 298h154v124h-154v-124zM442 215h-274v-118h156v59h119v-55c-1 -67 -43 -102 -127 -102h-151c-84 0 -115 35 -115 102v308c0 67 31 102 115 102h161c84 0 116 -35 116 -102v-194zM186 703h125l121 -161h-104l-78 99l-81 -99h-103z" />
    <glyph glyph-name="edieresis" unicode="&#xeb;" horiz-adv-x="461" 
d="M169 298h154v124h-154v-124zM442 215h-274v-118h156v59h119v-55c-1 -67 -43 -102 -127 -102h-151c-84 0 -115 35 -115 102v308c0 67 31 102 115 102h161c84 0 116 -35 116 -102v-194zM163 688c39 0 71 -35 71 -74c0 -40 -33 -71 -73 -71c-39 0 -72 33 -72 73s34 72 74 72
zM361 688c40 0 72 -35 72 -74c0 -40 -33 -71 -73 -71s-72 33 -72 73s34 72 73 72z" />
    <glyph glyph-name="iacute" unicode="&#xed;" horiz-adv-x="309" 
d="M50 511h178v-409h62v-102h-240v102h61v307h-61v102zM170 703h147l-159 -160h-89z" />
    <glyph glyph-name="igrave" unicode="&#xec;" horiz-adv-x="309" 
d="M50 511h178v-409h62v-102h-240v102h61v307h-61v102zM-23 706h150l98 -163h-86z" />
    <glyph glyph-name="icircumflex" unicode="&#xee;" horiz-adv-x="309" 
d="M50 511h178v-409h62v-102h-240v102h61v307h-61v102zM74 705h125l120 -162h-103l-78 99l-81 -99h-104z" />
    <glyph glyph-name="idieresis" unicode="&#xef;" horiz-adv-x="309" 
d="M50 511h178v-409h62v-102h-240v102h61v307h-61v102zM48 688c40 0 71 -35 71 -74c0 -40 -33 -71 -72 -71c-40 0 -73 33 -73 73s34 72 74 72zM247 688c39 0 71 -35 71 -74c0 -40 -33 -71 -73 -71c-39 0 -72 33 -72 73s34 72 74 72z" />
    <glyph glyph-name="ntilde" unicode="&#xf1;" horiz-adv-x="582" 
d="M386 511c84 0 115 -35 115 -102v-307h62v-102h-179v409h-156v-307h57v-102h-235v102h61v307h-61v102h336zM420 680h63c-9 -47 -24 -97 -74 -121c-61 -28 -127 11 -186 30c-25 8 -41 5 -55 -7c-15 -14 -13 -25 -19 -39h-64c10 49 28 102 84 124c74 27 112 -26 184 -36
c35 -5 50 8 67 49z" />
    <glyph glyph-name="oacute" unicode="&#xf3;" horiz-adv-x="452" 
d="M50 409c0 67 31 102 115 102h153c84 0 115 -35 115 -102v-307c0 -67 -31 -102 -115 -102h-153c-84 0 -115 35 -115 102v307zM167 102h149v307h-149v-307zM232 703h146l-159 -160h-88z" />
    <glyph glyph-name="ograve" unicode="&#xf2;" horiz-adv-x="452" 
d="M50 409c0 67 31 102 115 102h153c84 0 115 -35 115 -102v-307c0 -67 -31 -102 -115 -102h-153c-84 0 -115 35 -115 102v307zM167 102h149v307h-149v-307zM97 706h150l101 -163h-90z" />
    <glyph glyph-name="ocircumflex" unicode="&#xf4;" horiz-adv-x="452" 
d="M50 409c0 67 31 102 115 102h153c84 0 115 -35 115 -102v-307c0 -67 -31 -102 -115 -102h-153c-84 0 -115 35 -115 102v307zM167 102h149v307h-149v-307zM180 702h125l120 -161h-103l-79 99l-80 -99h-104z" />
    <glyph glyph-name="odieresis" unicode="&#xf6;" horiz-adv-x="452" 
d="M50 409c0 67 31 102 115 102h153c84 0 115 -35 115 -102v-307c0 -67 -31 -102 -115 -102h-153c-84 0 -115 35 -115 102v307zM167 102h149v307h-149v-307zM156 688c39 0 71 -35 71 -74c0 -40 -33 -71 -72 -71c-40 0 -73 33 -73 73s34 72 74 72zM355 688
c39 0 71 -35 71 -74c0 -40 -33 -71 -73 -71c-39 0 -72 33 -72 73s34 72 74 72z" />
    <glyph glyph-name="otilde" unicode="&#xf5;" horiz-adv-x="452" 
d="M50 409c0 67 31 102 115 102h153c84 0 115 -35 115 -102v-307c0 -67 -31 -102 -115 -102h-153c-84 0 -115 35 -115 102v307zM167 102h149v307h-149v-307zM388 680h62c-9 -47 -24 -97 -74 -121c-61 -28 -125 8 -186 30c-26 9 -41 5 -55 -7c-15 -14 -13 -25 -19 -39h-64
c11 49 28 102 84 124c74 27 112 -26 184 -36c35 -5 50 8 68 49z" />
    <glyph glyph-name="uacute" unicode="&#xfa;" horiz-adv-x="582" 
d="M111 409h-61v102h178v-409h155v307h-59v102h177v-409h57v-102h-332c-84 0 -115 35 -115 102v307zM256 703h146l-159 -160h-88z" />
    <glyph glyph-name="ugrave" unicode="&#xf9;" horiz-adv-x="582" 
d="M111 409h-61v102h178v-409h155v307h-59v102h177v-409h57v-102h-332c-84 0 -115 35 -115 102v307zM168 706h150l101 -163h-89z" />
    <glyph glyph-name="ucircumflex" unicode="&#xfb;" horiz-adv-x="582" 
d="M111 409h-61v102h178v-409h155v307h-59v102h177v-409h57v-102h-332c-84 0 -115 35 -115 102v307zM227 702h125l121 -161h-104l-78 99l-81 -99h-103z" />
    <glyph glyph-name="udieresis" unicode="&#xfc;" horiz-adv-x="582" 
d="M111 409h-61v102h178v-409h155v307h-59v102h177v-409h57v-102h-332c-84 0 -115 35 -115 102v307zM190 688c40 0 71 -35 71 -74c0 -40 -33 -71 -72 -71c-40 0 -73 33 -73 73s34 72 74 72zM389 688c39 0 71 -35 71 -74c0 -40 -33 -71 -72 -71c-40 0 -73 33 -73 73
s34 72 74 72z" />
    <glyph glyph-name="dagger" unicode="&#x2020;" horiz-adv-x="481" 
d="M194 781h129l-41 -232l185 43v-128l-186 45l41 -182l-44 -470h-38l-40 470l36 183l-186 -43v128l186 -45z" />
    <glyph glyph-name="cent" unicode="&#xa2;" horiz-adv-x="448" 
d="M173 231h52v324h-52v-324zM225 648v69h47v-70h158v-180h-117v88h-41v-324h43v87h115v-183h-158v-84h-47v84h-56c-84 1 -114 35 -114 103v307c0 68 30 103 114 103h56z" />
    <glyph glyph-name="sterling" unicode="&#xa3;" horiz-adv-x="544" 
d="M81 614c0 91 3 170 133 170h184c129 0 134 -82 134 -170v-58h-125v51c1 67 -12 74 -76 74h-48c-60 0 -76 -7 -76 -74v-216h117v-107h-117v-181h201v107h114v-210h-438v284h-73v108h70v222z" />
    <glyph glyph-name="section" unicode="&#xa7;" horiz-adv-x="509" 
d="M444 688l-81 -56c-30 41 -50 67 -94 59c-20 -3 -39 -16 -45 -39c-11 -41 32 -77 77 -118l43 -41c92 -90 166 -171 147 -263c-14 -64 -51 -82 -111 -100c53 -64 67 -119 48 -177c-15 -48 -50 -76 -100 -88c-61 -17 -134 -6 -205 58c-12 10 -20 20 -32 34l81 59
c33 -48 54 -77 105 -69c22 2 41 14 49 39c13 46 -32 90 -85 142l-68 67c-79 82 -139 146 -122 230c8 35 33 70 77 89c7 2 15 4 38 8c-47 56 -66 106 -44 167c17 45 48 75 101 86c66 13 150 0 221 -87zM156 394c9 -43 135 -169 171 -183c20 -6 37 -2 50 9c15 13 17 30 15 46
c-7 32 -142 168 -176 181c-22 8 -38 2 -48 -6c-15 -13 -17 -28 -12 -47z" />
    <glyph glyph-name="bullet" unicode="&#x2022;" horiz-adv-x="198" 
d="M116 456c37 0 67 -30 67 -67c0 -38 -30 -67 -67 -67c-38 0 -67 29 -67 67c0 37 29 67 67 67z" />
    <glyph glyph-name="paragraph" unicode="&#xb6;" horiz-adv-x="555" 
d="M536 784v-26h-80v-888h-36v888h-110v-886h-36v468c-58 0 -156 21 -196 98c-35 65 -39 185 0 250c66 110 190 96 264 96h194z" />
    <glyph glyph-name="germandbls" unicode="&#xdf;" horiz-adv-x="539" 
d="M524 169c0 -91 -5 -169 -134 -169h-80v102h99v264h-98v97h92v218h-175v-681h-178v102h61v512c0 91 4 170 133 170h136c129 0 134 -82 134 -170v-115c0 -66 -4 -77 -53 -90c65 -11 63 -26 63 -115v-125z" />
    <glyph glyph-name="registered" unicode="&#xae;" horiz-adv-x="802" 
d="M257 590h171c57 0 147 3 192 -70c19 -30 22 -78 7 -107c-21 -45 -57 -57 -102 -70c106 -36 107 -125 107 -194h-92c-2 41 -1 159 -112 159h-89v-158h-82v440zM340 382h88c52 0 117 4 117 69c0 71 -63 69 -117 69h-88v-138zM427 744c211 0 380 -170 380 -380
c0 -209 -169 -380 -380 -380c-209 0 -379 171 -379 380c0 210 170 380 379 380zM90 364c0 -186 152 -337 337 -337c187 0 338 151 338 337s-151 337 -338 337c-185 0 -337 -151 -337 -337z" />
    <glyph glyph-name="copyright" unicode="&#xa9;" horiz-adv-x="802" 
d="M608 460h-80c-12 42 -26 71 -70 83c-31 8 -73 7 -101 -17c-49 -41 -54 -152 -51 -183c3 -36 11 -98 64 -126c32 -17 85 -18 114 -1c36 19 46 47 54 86h82c-11 -64 -37 -120 -113 -149c-58 -21 -146 -20 -205 28c-76 59 -83 182 -76 241c7 56 38 136 113 171
c52 25 143 23 200 -16c44 -30 62 -68 69 -117zM427 744c211 0 380 -170 380 -380c0 -209 -169 -380 -380 -380c-209 0 -379 171 -379 380c0 210 170 380 379 380zM90 364c0 -186 152 -337 337 -337c187 0 338 151 338 337s-151 337 -338 337c-185 0 -337 -151 -337 -337z
" />
    <glyph glyph-name="trademark" unicode="&#x2122;" horiz-adv-x="772" 
d="M50 784h281v-107h-57v56h-54v-290h33v-53h-126v53h33v290h-54v-56h-56v107zM358 784h99l101 -211l94 211h104v-56h-33v-285h35v-53h-93v292l-89 -182h-40l-85 170v-280h-92v53h33v285h-34v56z" />
    <glyph glyph-name="acute" unicode="&#xb4;" horiz-adv-x="314" 
d="M150 727h147l-159 -160h-89z" />
    <glyph glyph-name="dieresis" unicode="&#xa8;" horiz-adv-x="413" 
d="M122 714c39 0 71 -34 71 -74s-33 -71 -73 -71c-39 0 -72 33 -72 73s34 72 74 72zM320 714c40 0 72 -34 72 -74s-33 -71 -73 -71c-39 0 -72 33 -72 73s34 72 73 72z" />
    <glyph glyph-name="notequal" unicode="&#x2260;" horiz-adv-x="725" 
d="M358 694h68v-300h299v-70h-299v-299h-68v299h-297v70h297v300z" />
    <glyph glyph-name="AE" unicode="&#xc6;" horiz-adv-x="917" 
d="M258 784h640v-244h-118v141h-195v-232h218v-104h-218v-243h208v140h116v-242h-520v102h67v143h-178l-97 -245h-153v102h61l230 579h-61v103zM456 681l-136 -331h136v331z" />
    <glyph glyph-name="Oslash" unicode="&#xd8;" horiz-adv-x="568" 
d="M175 227l243 428c-4 22 -26 26 -70 26h-97c-60 0 -71 -11 -76 -74v-380zM424 557l-243 -430c8 -21 27 -25 70 -25h97c65 0 76 7 76 74v381zM518 823h59s-49 -87 -51 -84c22 -32 23 -78 23 -125v-445c0 -91 -5 -169 -134 -169h-232c-28 0 -51 3 -68 10l-40 -69h-64l61 104
c-21 32 -22 78 -22 125v444c0 91 3 170 133 170h232c29 0 52 -4 70 -12z" />
    <glyph glyph-name="infinity" unicode="&#x221e;" horiz-adv-x="506" 
d="M30 511h131l90 -228c9 -23 13 -27 17 -50c5 23 10 35 16 51l88 227h135v-102h-60l-247 -619h-109l120 313l-126 306h-55v102zM252 703h147l-159 -160h-89z" />
    <glyph glyph-name="plusminus" unicode="&#xb1;" horiz-adv-x="713" 
d="M363 659h51v-186h297v-54h-298v-184h-52v187h-303v52h305v185zM58 113h653v-48h-653v48z" />
    <glyph glyph-name="lessequal" unicode="&#x2264;" horiz-adv-x="293" 
d="M210 713c1 34 -5 37 -37 37h-33c-30 0 -38 -3 -38 -37v-32h-61v35c0 45 1 85 66 85h96c65 0 69 -41 69 -85v-90l-172 -107v-59h113v53h59v-104h-234v140l172 106v58z" />
    <glyph glyph-name="greaterequal" unicode="&#x2265;" horiz-adv-x="293" 
d="M36 511h63v-13c0 -34 6 -38 39 -38h35c33 0 37 4 37 38v43c0 33 -5 37 -37 37h-73v53l103 119h-106v-39h-61v90h237v-52l-101 -122h34c64 0 68 -41 68 -85v-48c0 -45 -2 -85 -67 -85h-105c-64 0 -66 40 -66 85v17z" />
    <glyph glyph-name="yen" unicode="&#xa5;" horiz-adv-x="627" 
d="M31 784h145l159 -325l158 325h139v-103h-57l-175 -333v-33h191v-74h-192v-102h192v-69h-133v-70h-249v68h-136v71h200v103h-200v73h200c0 35 0 33 0 33l-184 333h-58v103z" />
    <glyph glyph-name="mu" unicode="&#xb5;" horiz-adv-x="672" 
d="M63 475h117v-227c0 -64 -6 -137 62 -172c25 -13 72 -17 102 1c56 33 50 155 50 193v205h100v-307c0 -33 19 -102 73 -102c46 0 64 25 69 61c3 21 8 56 19 56s19 -28 19 -56c0 -43 -19 -130 -94 -130c-86 0 -120 60 -136 116c-30 -72 -60 -114 -138 -118
c-72 -3 -117 36 -150 107v-199c0 -83 -5 -135 -47 -135c-41 0 -46 49 -46 132v575z" />
    <glyph glyph-name="partialdiff" unicode="&#x2202;" horiz-adv-x="866" 
d="M223 791v-415h46v-61h-175v61h42v322l-86 -34v50zM685 775h70l-499 -778c-41 0 -42 0 -67 2zM702 465l90 -2v-272h59v-58h-59v-139h-83v139h-223v78zM563 191h145v174z" />
    <glyph glyph-name="summation" unicode="&#x2211;" horiz-adv-x="893" 
d="M661 775h72l-502 -775h-68zM217 791v-415h47v-61h-175v61h42v322l-87 -34v50zM870 257l-239 -129v-71h158v62h83v-125h-324v169l237 127v42c0 67 -11 74 -76 74h-15c-56 0 -64 -8 -64 -74v-12h-88v44c0 54 21 100 110 100h105c96 0 113 -50 113 -137v-70z" />
    <glyph glyph-name="integral" unicode="&#x222b;" horiz-adv-x="872" 
d="M50 784h327v-61l-136 -147c64 0 135 0 135 -77v-98c0 -73 -43 -91 -110 -91h-111c-89 0 -104 53 -104 100v25h87v-13c0 -37 14 -49 45 -49h68c27 0 40 8 40 49v55c0 38 -16 39 -53 39h-97v64l140 145h-148v-49h-83v108zM689 775h70l-498 -776h-67zM708 465h91v-273h57
v-60h-57v-132h-85v133h-223v77zM566 194h148v172z" />
    <glyph glyph-name="ordfeminine" unicode="&#xaa;" horiz-adv-x="290" 
d="M245 592h30v-50h-152c-34 0 -50 3 -67 30c-7 12 -8 72 -3 85c10 21 20 28 42 28h93v67h-81v-38h-52v37c0 39 20 49 69 49h57c52 0 64 -24 64 -61v-70v-77zM110 586h79v56h-79v-56z" />
    <glyph glyph-name="ae" unicode="&#xe6;" horiz-adv-x="740" 
d="M441 414v-119h164v119h-164zM168 91h155v103h-155v-103zM723 211h-283v-113h167v54h117v-51c0 -67 -31 -102 -115 -102l-444 1c-84 0 -115 35 -115 102v75c0 67 31 103 115 103h158v135h-157v-80h-108v74c0 67 31 102 115 102h138c23 0 42 -5 67 -21c23 15 29 21 62 21
h168c84 0 115 -35 115 -102v-198z" />
    <glyph glyph-name="oslash" unicode="&#xf8;" horiz-adv-x="452" 
d="M167 183l147 226h-147v-226zM173 102h143v224zM374 505l34 51h55l-50 -78c14 -17 20 -39 20 -69v-307c0 -67 -31 -102 -115 -102h-153c-21 0 -38 2 -54 7l-44 -70h-59l61 95c-13 17 -19 41 -19 70v307c0 67 31 102 115 102h153c23 0 41 -2 56 -6z" />
    <glyph glyph-name="questiondown" unicode="&#xbf;" horiz-adv-x="428" 
d="M50 49c0 91 5 169 134 169h54v164h96v-246h-181v-262h175v109h86v-28c0 -91 -1 -171 -133 -171h-97c-129 0 -134 82 -134 171v94zM288 440c-38 0 -68 29 -68 67c0 37 30 67 68 67c37 0 67 -30 67 -67c0 -38 -30 -67 -67 -67z" />
    <glyph glyph-name="exclamdown" unicode="&#xa1;" horiz-adv-x="173" 
d="M56 383h88v-584h-88v584zM32 508c0 37 29 67 67 67c37 0 67 -30 67 -67c0 -38 -30 -67 -67 -67c-38 0 -67 29 -67 67z" />
    <glyph glyph-name="logicalnot" unicode="&#xac;" horiz-adv-x="216" 
d="M202 458h-25l-85 174c0 1 -61 104 -34 135c11 15 33 22 53 15c38 -12 47 -93 52 -118z" />
    <glyph glyph-name="radical" unicode="&#x221a;" horiz-adv-x="426" 
d="M49 727h101l80 -99l80 98h103l-122 -160h-124z" />
    <glyph glyph-name="florin" unicode="&#x192;" horiz-adv-x="573" 
d="M558 777v-103h-91l-58 -226h54v-98h-80l-108 -416c-39 -148 -58 -145 -191 -144h-35v101h92l118 459h-61v99h88l45 178c35 146 35 150 180 150h47z" />
    <glyph glyph-name="guillemotleft" unicode="&#xab;" horiz-adv-x="503" 
d="M390 426h99l-141 -175l137 -170h-100l-140 170zM193 426h99l-141 -175l138 -170h-100l-140 170z" />
    <glyph glyph-name="guillemotright" unicode="&#xbb;" horiz-adv-x="503" 
d="M289 251l-140 -170h-100l137 170l-141 175h99zM485 251l-140 -170h-100l138 170l-141 175h99z" />
    <glyph glyph-name="ellipsis" unicode="&#x2026;" horiz-adv-x="293" 
d="M185 805v-345h33v-51h-128v51h33v267l-64 -32v44zM218 460h-33h33z" />
    <glyph glyph-name="Agrave" unicode="&#xc0;" horiz-adv-x="644" 
d="M239 784h194l151 -682h61v-102h-168l-54 245h-170l-50 -245h-175v102h62zM270 345h133l-67 356zM157 988h150l101 -163h-90z" />
    <glyph glyph-name="Atilde" unicode="&#xc3;" horiz-adv-x="644" 
d="M240 784h194l151 -682h62v-102h-169l-54 245h-169l-50 -245h-175v102h61zM272 345h133l-67 356zM468 956h63c-9 -47 -24 -97 -74 -121c-62 -28 -125 8 -187 30c-26 9 -40 5 -54 -7c-15 -14 -14 -25 -19 -39h-64c10 49 27 103 84 124c74 27 111 -26 184 -36
c34 -5 50 8 67 49z" />
    <glyph glyph-name="Otilde" unicode="&#xd5;" horiz-adv-x="568" 
d="M549 169c0 -91 -5 -169 -134 -169h-232c-130 0 -133 80 -133 170v444c0 91 3 170 133 170h232c129 0 134 -82 134 -170v-445zM424 607c0 67 -11 74 -76 74h-97c-60 0 -76 -7 -76 -74v-431c0 -67 11 -74 76 -74h97c65 0 76 7 76 74v431zM449 963h62
c-9 -47 -23 -97 -73 -121c-62 -28 -125 8 -187 30c-26 9 -41 5 -54 -7c-15 -14 -14 -25 -20 -39h-63c10 49 27 102 84 124c74 27 111 -26 184 -36c34 -5 50 8 67 49z" />
    <glyph glyph-name="OE" unicode="&#x152;" horiz-adv-x="949" 
d="M465 607c0 67 -12 74 -76 74h-78c-60 0 -76 -7 -76 -74v-431c0 -67 12 -74 76 -74h78c64 0 76 7 76 74v431zM384 0h-141c-129 0 -133 70 -133 170v444c0 88 4 170 133 170h232l431 -1v-251h-116v149h-201v-233h221v-105h-222v-241h211v139h115v-241h-530z" />
    <glyph glyph-name="oe" unicode="&#x153;" horiz-adv-x="732" 
d="M435 416v-121h163v121h-163zM319 409h-152v-307h152v307zM435 215v-118h163v59h117v-55c0 -67 -30 -102 -114 -102h-153c-17 0 -39 7 -45 15c-6 -7 -25 -14 -39 -14h-199c-84 0 -115 35 -115 102v307c0 67 31 102 115 102h199c16 0 30 -3 42 -14c11 10 26 14 42 14h151
c84 0 116 -35 116 -102v-194h-280z" />
    <glyph glyph-name="endash" unicode="&#x2013;" horiz-adv-x="741" 
d="M49 370h675v-78h-675v78z" />
    <glyph glyph-name="emdash" unicode="&#x2014;" horiz-adv-x="897" 
d="M49 294h848v-77h-848v77z" />
    <glyph glyph-name="quotedblleft" unicode="&#x201c;" horiz-adv-x="361" 
d="M49 784h74l79 -229h-76zM194 784h75l78 -229h-78z" />
    <glyph glyph-name="quotedblright" unicode="&#x201d;" horiz-adv-x="361" 
d="M260 555h-76l80 229h74zM117 555h-77l77 229h75z" />
    <glyph glyph-name="quoteleft" unicode="&#x2018;" horiz-adv-x="216" 
d="M49 784h74l79 -229h-76z" />
    <glyph glyph-name="quoteright" unicode="&#x2019;" horiz-adv-x="216" 
d="M124 555h-77l77 229h75z" />
    <glyph glyph-name="divide" unicode="&#xf7;" horiz-adv-x="630" 
d="M544 776h71l-498 -776h-68z" />
    <glyph glyph-name="ydieresis" unicode="&#xff;" horiz-adv-x="506" 
d="M32 511h132l89 -228c10 -23 13 -27 17 -50c5 23 11 35 16 51l88 227h135v-102h-60l-247 -619h-109l121 313l-126 306h-56v102zM168 688c40 0 72 -35 72 -74c0 -40 -33 -71 -73 -71s-73 33 -73 73s34 72 74 72zM367 688c40 0 72 -35 72 -74c0 -40 -33 -71 -73 -71
s-73 33 -73 73s34 72 74 72z" />
    <glyph glyph-name="Ydieresis" unicode="&#x178;" horiz-adv-x="627" 
d="M28 784h146l159 -321l158 321h137v-103h-55l-176 -330v-249h56v-102h-245v102h61v249l-183 330h-58v103zM336 985h147l-159 -160h-89z" />
    <glyph glyph-name="fraction" unicode="&#x2044;" horiz-adv-x="627" 
d="M28 784h146l159 -321l158 321h137v-103h-55l-176 -330v-249h56v-102h-245v102h61v249l-183 330h-58v103zM220 966c19 7 45 4 65 -11c21 -16 30 -37 29 -63c-3 -23 -15 -45 -39 -59c-18 -10 -43 -11 -64 -1c-21 11 -37 33 -41 57c-3 30 13 64 50 77zM423 967
c19 6 46 3 70 -19c20 -20 25 -43 18 -68c-6 -27 -26 -46 -53 -53c-22 -5 -47 -2 -69 22c-17 19 -24 43 -16 68c8 24 27 43 50 50z" />
    <glyph glyph-name="guilsinglleft" unicode="&#x2039;" horiz-adv-x="302" 
d="M136 258l138 -175h-97l-142 175l145 170h94z" />
    <glyph glyph-name="guilsinglright" unicode="&#x203a;" horiz-adv-x="302" 
d="M40 428h94l144 -170l-142 -175h-96l137 175z" />
    <glyph glyph-name="fi" unicode="&#xfb01;" horiz-adv-x="594" 
d="M308 784v-103h-80v-170h65v-102h-65v-307h65v-102h-243v102h61v307h-61v102h61v171c0 67 31 102 115 102h82zM333 511h178v-409h62v-102h-240v102h61v307h-61v102zM440 717c40 0 69 -31 69 -67c0 -40 -29 -69 -67 -69c-39 0 -69 29 -69 67c0 37 30 69 67 69z" />
    <glyph glyph-name="fl" unicode="&#xfb02;" horiz-adv-x="595" 
d="M308 784v-103h-80v-170h65v-102h-65v-307h65v-102h-243v102h61v307h-61v102h61v171c0 67 31 102 115 102h82zM332 784h178v-682h62v-102h-240v102h61v579h-61v103z" />
    <glyph glyph-name="daggerdbl" unicode="&#x2021;" horiz-adv-x="483" 
d="M193 778h129l-41 -229l185 42v-126l-186 41l43 -186l-41 -192l186 44v-128l-186 44l42 -229h-129l44 232l-186 -44v128l186 -45l-45 194c5 12 42 182 42 182l-186 -41v128l185 -44z" />
    <glyph glyph-name="periodcentered" unicode="&#xb7;" horiz-adv-x="317" 
d="M228 2l-56 -66h34c64 0 68 -41 68 -85v-39c0 -45 -2 -85 -67 -85h-105c-64 0 -66 40 -66 85v18h63v-14c0 -34 6 -38 39 -38h35c33 0 37 4 37 38v34c0 33 -5 37 -37 37h-73v53l59 62h69z" />
    <glyph glyph-name="quotedblbase" unicode="&#x201e;" horiz-adv-x="361" 
d="M117 105h76l-74 -229h-75zM265 105h76l-77 -229h-76z" />
    <glyph glyph-name="perthousand" unicode="&#x2030;" horiz-adv-x="1175" 
d="M583 772h64l-377 -772h-62zM49 681c0 53 25 85 93 85h113c69 0 92 -32 92 -85v-224c0 -56 -23 -85 -92 -85h-113c-68 0 -93 29 -93 85v224zM136 442h121v257h-121v-257zM500 309c0 54 25 85 93 85h113c69 0 92 -31 92 -85v-224c0 -55 -23 -85 -92 -85h-113
c-68 0 -93 30 -93 85v224zM588 70h120v257h-120v-257zM860 309c0 54 25 85 93 85h113c69 0 92 -31 92 -85v-224c0 -55 -23 -85 -92 -85h-113c-68 0 -93 30 -93 85v224zM948 70h120v257h-120v-257z" />
    <glyph glyph-name="Acircumflex" unicode="&#xc2;" horiz-adv-x="644" 
d="M239 784h194l151 -682h61v-102h-168l-54 245h-170l-50 -245h-175v102h62zM270 345h133l-67 356zM274 985h125l120 -161h-103l-78 99l-81 -99h-104z" />
    <glyph glyph-name="Ecircumflex" unicode="&#xca;" horiz-adv-x="589" 
d="M50 784h517v-242h-125v139h-206v-230h225v-102h-225v-247h219v141h125v-243h-530v102h61v579h-61v103zM248 985h125l120 -161h-103l-79 99l-80 -99h-104z" />
    <glyph glyph-name="Aacute" unicode="&#xc1;" horiz-adv-x="644" 
d="M235 784h195l151 -682h61v-102h-168l-55 245h-169l-50 -245h-175v102h61zM267 345h133l-67 356zM350 985h147l-159 -160h-89z" />
    <glyph glyph-name="Edieresis" unicode="&#xcb;" horiz-adv-x="589" 
d="M50 784h517v-242h-125v139h-206v-230h225v-102h-225v-247h219v141h125v-243h-530v102h61v579h-61v103zM226 969c40 0 72 -34 72 -74c0 -39 -33 -70 -73 -70s-73 33 -73 73s34 71 74 71zM425 969c40 0 72 -34 72 -74c0 -39 -33 -70 -73 -70s-73 33 -73 73s34 71 74 71z
" />
    <glyph glyph-name="Egrave" unicode="&#xc8;" horiz-adv-x="589" 
d="M50 784h517v-242h-125v139h-206v-230h225v-102h-225v-247h219v141h125v-243h-530v102h61v579h-61v103zM158 988h150l101 -163h-90z" />
    <glyph glyph-name="Iacute" unicode="&#xcd;" horiz-adv-x="317" 
d="M50 784h245v-103h-59v-579h62v-102h-248v102h61v579h-61v103zM170 985h147l-159 -160h-89z" />
    <glyph glyph-name="Icircumflex" unicode="&#xce;" horiz-adv-x="317" 
d="M50 784h245v-103h-59v-579h62v-102h-248v102h61v579h-61v103zM106 985h125l120 -161h-103l-79 99l-80 -99h-104z" />
    <glyph glyph-name="Idieresis" unicode="&#xcf;" horiz-adv-x="317" 
d="M50 784h245v-103h-59v-579h62v-102h-248v102h61v579h-61v103zM78 968c40 0 72 -34 72 -74c0 -39 -33 -70 -73 -70c-39 0 -72 33 -72 73c0 39 34 71 73 71zM277 968c40 0 72 -34 72 -74c0 -39 -33 -70 -73 -70s-73 33 -73 73c0 39 35 71 74 71z" />
    <glyph glyph-name="Igrave" unicode="&#xcc;" horiz-adv-x="317" 
d="M50 784h245v-103h-59v-579h62v-102h-248v102h61v579h-61v103zM8 988h150l101 -163h-90z" />
    <glyph glyph-name="Oacute" unicode="&#xd3;" horiz-adv-x="568" 
d="M549 169c0 -91 -5 -169 -134 -169h-232c-130 0 -133 80 -133 170v444c0 91 3 170 133 170h232c129 0 134 -82 134 -170v-445zM424 607c0 67 -11 74 -76 74h-97c-60 0 -76 -7 -76 -74v-431c0 -67 11 -74 76 -74h97c65 0 76 7 76 74v431zM276 985h147l-159 -160h-89z" />
    <glyph glyph-name="Ocircumflex" unicode="&#xd4;" horiz-adv-x="568" 
d="M549 169c0 -91 -5 -169 -134 -169h-232c-130 0 -133 80 -133 170v444c0 91 3 170 133 170h232c129 0 134 -82 134 -170v-445zM424 607c0 67 -11 74 -76 74h-97c-60 0 -76 -7 -76 -74v-431c0 -67 11 -74 76 -74h97c65 0 76 7 76 74v431zM249 985h125l120 -161h-103l-78 99
l-81 -99h-104z" />
    <glyph glyph-name="Ograve" unicode="&#xd2;" horiz-adv-x="568" 
d="M549 169c0 -91 -5 -169 -134 -169h-232c-130 0 -133 80 -133 170v444c0 91 3 170 133 170h232c129 0 134 -82 134 -170v-445zM424 607c0 67 -11 74 -76 74h-97c-60 0 -76 -7 -76 -74v-431c0 -67 11 -74 76 -74h97c65 0 76 7 76 74v431zM168 989h150l101 -163h-89
l-160 158z" />
    <glyph glyph-name="Uacute" unicode="&#xda;" horiz-adv-x="668" 
d="M111 681h-61v103h186v-608c0 -67 12 -74 77 -74h73c65 0 77 7 77 74v608h186v-103h-61v-512c0 -91 -5 -169 -135 -169h-209c-129 0 -133 80 -133 170v511zM331 986h146l-159 -160h-88z" />
    <glyph glyph-name="Ucircumflex" unicode="&#xdb;" horiz-adv-x="668" 
d="M111 681h-61v103h186v-608c0 -67 12 -74 77 -74h73c65 0 77 7 77 74v608h186v-103h-61v-512c0 -91 -5 -169 -135 -169h-209c-129 0 -133 80 -133 170v511zM289 985h125l120 -161h-103l-79 99l-80 -99h-104z" />
    <glyph glyph-name="Ugrave" unicode="&#xd9;" horiz-adv-x="668" 
d="M111 681h-61v103h186v-608c0 -67 12 -74 77 -74h73c65 0 77 7 77 74v608h186v-103h-61v-512c0 -91 -5 -169 -135 -169h-209c-129 0 -133 80 -133 170v511zM195 989h150l102 -163h-90l-159 158z" />
    <glyph glyph-name="dotlessi" unicode="&#x131;" horiz-adv-x="309" 
d="M50 511h178v-409h62v-102h-240v102h61v307h-61v102z" />
    <glyph glyph-name="circumflex" unicode="&#x2c6;" horiz-adv-x="426" 
d="M169 730h125l121 -163h-104l-78 100l-81 -99h-103z" />
    <glyph glyph-name="tilde" unicode="&#x2dc;" horiz-adv-x="461" 
d="M384 714h63c-9 -47 -24 -97 -74 -121c-62 -28 -126 16 -187 30c-21 4 -41 5 -54 -7c-15 -14 -14 -25 -19 -39h-64c10 49 27 103 84 124c74 27 111 -26 184 -36c33 -5 50 8 67 49z" />
    <glyph glyph-name="macron" unicode="&#xaf;" horiz-adv-x="439" 
d="M49 678h370v-75h-370v75z" />
    <glyph glyph-name="breve" unicode="&#x2d8;" horiz-adv-x="426" 
d="M49 734h64c17 -52 39 -75 87 -84c27 -5 93 -6 127 35c11 13 17 35 22 47h61c-9 -60 -24 -109 -88 -140c-49 -23 -142 -27 -196 5c-57 34 -68 78 -77 137z" />
    <glyph glyph-name="dotaccent" unicode="&#x2d9;" horiz-adv-x="214" 
d="M73 501h-24l40 202c4 24 14 114 54 122c17 3 38 -1 50 -17c21 -27 -32 -120 -40 -138z" />
    <glyph glyph-name="ring" unicode="&#x2da;" horiz-adv-x="297" 
d="M170 800c65 -1 116 -55 115 -119c-1 -65 -54 -116 -119 -115s-116 54 -115 119s55 116 119 115zM107 683c0 -34 27 -60 61 -60s62 26 62 60s-28 61 -62 61s-61 -27 -61 -61z" />
    </font>
</defs>
</svg>
